<svg width="16" height="12" viewBox="0 0 16 12" fill="none" xmlns="http://www.w3.org/2000/svg">
<path d="M15.9023 5.76429L10.9023 0.76429C10.7721 0.634071 10.5612 0.634071 10.431 0.76429C10.3008 0.894509 10.3008 1.10545 10.431 1.23563L14.862 5.66663H0.333344C0.149094 5.66663 0 5.81573 0 5.99998C0 6.18423 0.149094 6.33332 0.333344 6.33332H14.862L10.431 10.7643C10.3008 10.8945 10.3008 11.1054 10.431 11.2356C10.4961 11.3007 10.5814 11.3333 10.6667 11.3333C10.752 11.3333 10.8373 11.3007 10.9024 11.2356L15.9024 6.23563C16.0326 6.10544 16.0326 5.89451 15.9023 5.76429Z" fill="#454545"/>
</svg>
