<svg width="60" height="60" viewBox="0 0 60 60" fill="none" xmlns="http://www.w3.org/2000/svg">
<path d="M59.9568 37.6697C59.6825 33.5638 58.1271 29.7726 55.5772 26.9947C53.0135 24.2017 49.7484 22.7401 46.3438 22.8526L46.2718 22.4058C49.4014 21.5218 52.4108 20.0686 55.1962 17.6844L52.6843 14.7497C50.5637 16.5648 48.2617 17.7432 45.8227 18.5074C45.0371 13.4659 41.8186 9.26132 36.878 6.98835C33.7447 5.54695 30.2249 5.04316 26.6991 5.53136C22.9324 6.05284 19.3304 7.70894 16.2827 10.3201L14.5699 11.7876L16.2836 13.2542C21.2381 17.4944 25.9317 17.5965 30.0728 17.6864C33.3453 17.7575 36.2857 17.8229 39.4111 19.6873C36.6902 19.9179 33.8636 19.9052 30.9792 19.8922C25.0812 19.8666 18.9823 19.8387 13.6658 22.1518C7.59855 24.7916 3.40711 30.1454 0.851953 38.5187L0 41.3106L2.90273 41.0032C9.83719 40.2689 13.9273 35.3619 17.5356 31.0325C20.5707 27.391 23.195 24.2426 26.9502 23.7636C27.4646 23.7555 27.9839 23.7524 28.5056 23.7509C26.6606 24.1356 24.8583 24.9827 23.1994 26.2687C20.2191 28.579 18.0492 32.0551 17.0893 36.0565C16.1292 40.058 16.4861 44.1402 18.0939 47.5512C19.7699 51.1067 22.5922 53.5205 26.0409 54.3477C26.8873 54.5508 27.7427 54.6497 28.5959 54.6497C32.1345 54.6497 35.6358 52.9476 38.3136 49.9209C38.3592 49.972 38.4046 50.0236 38.4507 50.0739C40.9233 52.7675 44.0482 54.2228 47.3205 54.2226C47.5662 54.2226 47.8132 54.2144 48.0601 54.1979C51.5989 53.9612 54.7867 52.0556 57.0359 48.8321C59.194 45.7398 60.231 41.7755 59.9568 37.6697ZM14.5682 28.5593C11.8689 31.7979 9.28699 34.8956 5.70691 36.3573C7.90559 30.9612 10.9737 27.536 15.207 25.6941C16.0748 25.3164 16.9738 25.0113 17.9 24.7651C16.7347 25.9601 15.6455 27.2667 14.5682 28.5593ZM30.1567 13.8245C26.847 13.7524 23.9106 13.6887 20.783 11.7752C22.7808 10.4958 24.9725 9.67007 27.229 9.35765C30.0232 8.97058 32.8014 9.36503 35.2635 10.4978C37.9832 11.749 40.0114 13.7652 41.1384 16.2285C37.211 13.9776 33.5187 13.8975 30.1567 13.8245ZM34.0712 39.3992C34.2439 41.9834 34.9244 44.4424 36.0405 46.6031C33.6129 49.806 30.1416 51.3592 26.9421 50.5912C24.6558 50.0428 22.7544 48.3783 21.588 45.9041C20.3536 43.2852 20.0899 40.1079 20.8455 36.9576C22.3678 30.6116 27.5796 26.4019 32.4637 27.5734C33.8269 27.9005 35.0621 28.6303 36.0873 29.7034C34.5497 32.5366 33.8386 35.9169 34.0712 39.3992ZM34.6426 24.2096L34.8 23.7504C37.3784 23.7182 39.9582 23.5978 42.4888 23.2126L42.56 23.6546C41.0217 24.2782 39.6066 25.2516 38.3778 26.538C37.2745 25.5082 36.0159 24.7226 34.6426 24.2096ZM47.8029 50.3436C47.6445 50.3543 47.4871 50.3594 47.3298 50.3594C42.5157 50.3592 38.3469 45.4473 37.9257 39.1417C37.7096 35.9093 38.5031 32.8214 40.1599 30.4469C41.7251 28.2036 43.8791 26.8819 46.225 26.7253C46.3816 26.7148 46.538 26.7096 46.6943 26.7096C48.8773 26.7096 51.0053 27.7266 52.7313 29.6071C54.6892 31.7401 55.8864 34.695 56.1022 37.9274C56.5375 44.4384 52.8143 50.0086 47.8029 50.3436Z" fill="#155B74"/>
<path d="M43.6344 29.6323C42.7545 30.2405 42.1204 31.0121 41.7437 31.5521C40.3578 33.5385 39.6685 36.258 39.8526 39.013L43.707 38.7553C43.5803 36.8612 44.0195 35.0412 44.9118 33.7622C45.1873 33.3673 45.5135 33.0294 45.8302 32.8106L43.6344 29.6323Z" fill="#155B74"/>
<path d="M27.1479 29.9395C26.1962 30.4273 25.4671 31.1096 25.0232 31.5959C23.3898 33.3845 22.3515 35.9908 22.1748 38.7463L26.0298 38.9937C26.1513 37.0991 26.8242 35.3522 27.8757 34.2007C28.2005 33.8451 28.568 33.5525 28.9106 33.3768L27.1479 29.9395Z" fill="#155B74"/>
</svg>
