<svg width="50" height="50" viewBox="0 0 50 50" fill="none" xmlns="http://www.w3.org/2000/svg">
<path d="M0.5 25C0.5 11.469 11.469 0.5 25 0.5C38.531 0.5 49.5 11.469 49.5 25C49.5 38.531 38.531 49.5 25 49.5C11.469 49.5 0.5 38.531 0.5 25Z" stroke="#E0E0E0"/>
<path fill-rule="evenodd" clip-rule="evenodd" d="M18.6146 18.0078L18.5436 18.0003C18.2852 17.9909 18.0531 18.1737 18.0078 18.4355L18.0003 18.5066C17.9909 18.765 18.1737 18.9971 18.4355 19.0424L19.4918 19.2251L20.132 26.8519L20.1452 26.9666C20.274 27.8363 21.0221 28.4901 21.913 28.4901H29.5513L29.6663 28.4864C30.5037 28.433 31.1981 27.7997 31.3203 26.9584L31.9846 22.3676L31.9961 22.2621C32.0572 21.4228 31.3923 20.6943 30.5362 20.6943H20.6685L20.5042 18.7332L20.4918 18.6556C20.4439 18.4537 20.2798 18.296 20.0706 18.2598L18.6146 18.0078ZM21.8314 27.4356C21.4847 27.3976 21.2075 27.1192 21.1779 26.7643L20.7562 21.7442H30.5357L30.5974 21.7488C30.8184 21.7816 30.9781 21.9883 30.945 22.2172L30.2807 26.8076L30.2641 26.8897C30.1798 27.2107 29.889 27.44 29.5508 27.44H21.9126L21.8314 27.4356ZM20.7362 30.6592C20.7362 30.074 21.2106 29.5988 21.796 29.5988C22.3813 29.5988 22.8565 30.0739 22.8565 30.6592C22.8565 31.2447 22.3812 31.719 21.796 31.719C21.2106 31.719 20.7362 31.2446 20.7362 30.6592ZM28.6112 30.6592C28.6112 30.0739 29.0863 29.5988 29.6717 29.5988C30.257 29.5988 30.7322 30.0739 30.7322 30.6592C30.7322 31.2447 30.2569 31.719 29.6717 31.719C29.0864 31.719 28.6112 31.2447 28.6112 30.6592ZM28.9535 23.8064C28.9535 23.5165 28.7185 23.2814 28.4286 23.2814H26.4875L26.4163 23.2862C26.16 23.321 25.9625 23.5407 25.9625 23.8064C25.9625 24.0964 26.1975 24.3314 26.4875 24.3314H28.4286L28.4998 24.3266C28.756 24.2919 28.9535 24.0722 28.9535 23.8064Z" fill="#155B74"/>
</svg>
