<svg width="110" height="111" viewBox="0 0 110 111" fill="none" xmlns="http://www.w3.org/2000/svg">
<path d="M58.134 63.5024C58.134 64.1469 58.1362 64.7915 58.134 65.4359C58.1326 65.7352 58.123 66.0345 58.1131 66.3338C58.1075 66.5091 58.1819 66.6227 58.3132 66.6247C58.4661 66.6271 58.5499 66.5312 58.554 66.3506C58.5436 66.2489 58.5472 66.1463 58.5648 66.0456C58.6069 65.9036 58.672 65.7694 58.7574 65.6485C58.8424 65.5336 58.9549 65.5416 59.0596 65.6598C59.3389 65.9743 59.6276 66.2801 59.9079 66.5936C60.0057 66.7029 60.096 66.7571 60.2294 66.6461C60.3685 66.5303 60.3182 66.4202 60.227 66.3176C59.977 66.0369 59.7256 65.7576 59.4668 65.4855C59.264 65.2721 59.2453 65.1857 59.4442 64.9704C59.6312 64.7717 59.8288 64.583 60.036 64.4053C60.2457 64.2226 60.2503 64.1443 60.036 63.9849C59.4702 63.5654 58.905 63.145 58.3404 62.7236C58.2104 62.6273 58.1494 62.6461 58.1388 62.8147C58.1244 63.0432 58.1352 63.2722 58.1352 63.5024H58.134ZM58.6183 65.1693L58.5506 65.1491C58.5506 64.9546 58.5506 64.76 58.5506 64.5654C58.5506 64.2524 58.5448 63.9394 58.548 63.6264C58.548 63.5325 58.5821 63.4477 58.6996 63.5257C58.9539 63.6943 59.2053 63.8674 59.4576 64.0396C59.4845 64.0514 59.5077 64.07 59.5251 64.0937C59.5424 64.1173 59.5532 64.1451 59.5564 64.1743C59.5596 64.2034 59.555 64.2329 59.5432 64.2597C59.5313 64.2865 59.5126 64.3098 59.489 64.3271C59.4059 64.4147 59.3204 64.4999 59.2332 64.5835C59.0288 64.7785 58.8232 64.9738 58.6183 65.1689V65.1693Z" fill="#155B74" stroke="#155B74" stroke-width="0.5" stroke-miterlimit="10"/>
<path d="M62.4487 70.8948C62.4316 70.79 62.4425 70.6826 62.4804 70.5835C62.5182 70.4843 62.5815 70.3969 62.664 70.3301C62.6818 70.3098 62.7039 70.2938 62.7288 70.2833C62.7537 70.2728 62.7807 70.2681 62.8077 70.2697C62.8347 70.2712 62.8609 70.2788 62.8845 70.292C62.9081 70.3052 62.9284 70.3236 62.9438 70.3458C63.2327 70.6684 63.5294 70.9846 63.8198 71.306C63.9161 71.4115 64.0068 71.4505 64.128 71.3455C64.1527 71.3272 64.173 71.3035 64.1871 71.2761C64.2012 71.2487 64.2088 71.2185 64.2093 71.1877C64.2098 71.1569 64.2032 71.1264 64.19 71.0986C64.1768 71.0707 64.1574 71.0463 64.1333 71.0272C63.8848 70.7452 63.6331 70.4659 63.3748 70.1931C63.1559 69.9617 63.1398 69.8856 63.3577 69.6528C63.5438 69.4539 63.7485 69.2716 63.9527 69.0908C64.1402 68.9242 64.1417 68.8375 63.9466 68.6933C63.3798 68.2745 62.814 67.8543 62.2491 67.4327C62.1068 67.3265 62.0427 67.3424 62.0365 67.517C62.0211 67.9367 62.0204 68.3571 62.0184 68.7773C62.0165 69.1286 62.0225 69.4799 62.0228 69.8312C62.0228 70.13 62.0199 70.4289 62.0184 70.7277C62.0184 70.824 62.0247 70.9189 62.0184 71.0135C62.004 71.2018 62.076 71.3215 62.2137 71.3243C62.3668 71.3275 62.4473 71.2336 62.4497 71.0484C62.4492 71.0036 62.4487 70.9588 62.4487 70.8948ZM62.5116 69.8765C62.4841 69.8418 62.4567 69.8235 62.4564 69.8043C62.4518 69.3013 62.4465 68.798 62.4509 68.295C62.4509 68.197 62.513 68.1638 62.6067 68.2283C62.8515 68.3969 63.0996 68.5618 63.3461 68.7284C63.3742 68.741 63.3987 68.7606 63.417 68.7853C63.4354 68.81 63.447 68.8391 63.4509 68.8696C63.4548 68.9002 63.4507 68.9312 63.4391 68.9598C63.4275 68.9883 63.4087 69.0133 63.3847 69.0325C63.3047 69.1219 63.2161 69.2045 63.1301 69.2878C62.9272 69.4833 62.7227 69.6762 62.5116 69.8767V69.8765Z" fill="#155B74" stroke="#155B74" stroke-width="0.5" stroke-miterlimit="10"/>
<path d="M66.305 64.6942C66.2933 64.6279 66.2853 64.5611 66.2809 64.4939C66.2809 64.0537 66.2841 63.6136 66.2838 63.1734C66.2876 63.1462 66.2852 63.1186 66.277 63.0924C66.2688 63.0662 66.2549 63.0422 66.2363 63.0221C66.2177 63.0019 66.1949 62.9861 66.1695 62.9758C66.144 62.9655 66.1167 62.961 66.0893 62.9625C65.9388 62.9567 65.8685 63.0321 65.8687 63.1838C65.8687 63.8664 65.8704 64.5493 65.8673 65.2319C65.8655 65.5953 65.859 65.9585 65.8478 66.3215C65.8417 66.5204 65.9128 66.6266 66.0727 66.6273C66.2222 66.6273 66.2792 66.5403 66.2744 66.328C66.261 66.1052 66.2605 65.8819 66.273 65.6591C66.2886 65.5262 66.3384 65.3996 66.4175 65.2916C66.4972 65.1835 66.6144 65.2336 66.6949 65.3215C67.0035 65.6586 67.3074 66.0015 67.6159 66.3395C67.7209 66.4668 67.838 66.5835 67.9657 66.688C68.0038 66.7084 68.0464 66.719 68.0896 66.7187C68.1328 66.7184 68.1752 66.7073 68.213 66.6863C68.2372 66.6672 68.2569 66.6432 68.2709 66.6158C68.2848 66.5884 68.2928 66.5583 68.294 66.5276C68.2953 66.4968 68.2899 66.4662 68.2783 66.4377C68.2666 66.4093 68.249 66.3837 68.2265 66.3627C67.8535 65.9615 67.4772 65.5635 67.1032 65.1633C67.0337 65.1073 66.9767 65.0374 66.9359 64.9581C66.8985 64.863 66.9001 64.7569 66.9405 64.6629C67.2053 64.3131 67.4943 63.9805 67.7721 63.6408C67.8973 63.4881 68.0108 63.3249 68.1444 63.1806C68.1698 63.1608 68.1901 63.1352 68.2038 63.106C68.2175 63.0768 68.2241 63.0448 68.2232 63.0126C68.2222 62.9804 68.2137 62.9488 68.1983 62.9205C68.1829 62.8922 68.161 62.8679 68.1345 62.8496C68.0216 62.7455 67.9079 62.7923 67.8215 62.8951C67.6248 63.1289 67.435 63.3687 67.2417 63.6056C66.9643 63.9456 66.6862 64.2851 66.4073 64.6239C66.3758 64.6509 66.3415 64.6744 66.305 64.6942Z" fill="#155B74" stroke="#155B74" stroke-width="0.5" stroke-miterlimit="10"/>
<path d="M58.0935 67.8082C58.0935 68.6845 58.0935 69.5607 58.0935 70.4367C58.0935 70.6796 58.0841 70.9228 58.0877 71.1658C58.086 71.1915 58.09 71.2173 58.0995 71.2412C58.1091 71.2652 58.1238 71.2867 58.1427 71.3042C58.1616 71.3217 58.1842 71.3348 58.2088 71.3425C58.2334 71.3501 58.2594 71.3522 58.2849 71.3485C58.4126 71.3485 58.4942 71.3028 58.4988 71.1641C58.4913 70.9985 58.4976 70.8326 58.5178 70.668C58.5394 70.534 58.6022 70.4099 58.6974 70.3131C59.1438 69.9365 59.6069 69.5797 60.0651 69.2171C60.244 69.0755 60.2563 68.9727 60.1014 68.8515L58.3459 67.4791C58.3158 67.455 58.2861 67.4309 58.2541 67.4109C58.1479 67.3435 58.0856 67.3628 58.0873 67.5007C58.0873 67.6031 58.0873 67.7054 58.0873 67.8077L58.0935 67.8082ZM58.4949 68.8094H58.5C58.5 68.6558 58.4956 68.5022 58.5014 68.3488C58.5055 68.2409 58.5736 68.2094 58.6548 68.2708C58.9277 68.4795 59.1965 68.6926 59.4612 68.9103C59.5575 68.9893 59.5642 69.0661 59.4465 69.1545C59.1927 69.3449 58.9514 69.5525 58.7022 69.7497C58.6574 69.7779 58.6096 69.8009 58.5597 69.8183C58.5303 69.7667 58.5094 69.7107 58.4978 69.6524C58.4915 69.3717 58.4949 69.0904 58.4949 68.8094Z" fill="#155B74" stroke="#155B74" stroke-width="0.5" stroke-miterlimit="10"/>
<path d="M56.8312 65.8016C56.7265 65.7118 56.6172 65.6268 56.5182 65.5312C56.2432 65.2663 55.9731 64.9964 55.6995 64.7299C55.5524 64.5854 55.5613 64.4891 55.7092 64.3463C56.0104 64.0542 56.3032 63.7535 56.6001 63.4554C56.7388 63.3157 56.8714 63.1691 57.0164 63.0362C57.1264 62.9355 57.1556 62.8269 57.0504 62.7232C57.0288 62.7014 57.003 62.6845 56.9744 62.6735C56.9459 62.6625 56.9153 62.6576 56.8848 62.6592C56.8542 62.6609 56.8244 62.669 56.7972 62.683C56.77 62.697 56.7461 62.7166 56.727 62.7405C56.5486 62.9131 56.3737 63.0894 56.1972 63.2644C55.8688 63.5914 55.5405 63.9187 55.2124 64.2464C55.1549 64.2967 55.103 64.3532 55.0578 64.4149C55.0393 64.4347 55.025 64.458 55.0158 64.4835C55.0066 64.5089 55.0027 64.536 55.0042 64.563C55.0058 64.59 55.0129 64.6165 55.025 64.6407C55.0371 64.6649 55.054 64.6864 55.0747 64.7039C55.374 64.9878 55.662 65.2837 55.9589 65.5707C56.3432 65.9415 56.7303 66.3096 57.1202 66.675C57.1724 66.7136 57.229 66.7459 57.2887 66.7713C57.3139 66.7157 57.3311 66.6568 57.3398 66.5965C57.3415 65.9825 57.3379 65.3684 57.335 64.7544C57.335 64.7159 57.3453 64.6653 57.3256 64.6417C57.263 64.5666 57.1886 64.5018 57.1187 64.433C57.0547 64.4997 56.943 64.5611 56.9353 64.6338C56.9095 64.8804 56.9218 65.131 56.9172 65.3802C56.9146 65.5153 56.9076 65.6502 56.9028 65.7852L56.8312 65.8016Z" fill="#155B74" stroke="#155B74" stroke-width="0.5" stroke-miterlimit="10"/>
<path d="M64.9241 66.8523C64.9809 66.7974 65.0738 66.7498 65.0811 66.691C65.0858 66.6475 65.0811 66.6035 65.0673 66.5619C65.0535 66.5204 65.031 66.4823 65.0011 66.4502C64.7194 66.2335 64.4257 66.0317 64.1314 65.8317C63.9583 65.7139 63.9448 65.6489 64.1148 65.5186C64.3315 65.3532 64.5605 65.2056 64.7798 65.044C65.0507 64.8449 65.0406 64.619 64.7591 64.4377C64.5135 64.2798 64.2683 64.1213 64.0235 63.9624C63.8918 63.8767 63.8921 63.7999 64.0221 63.7029C64.3431 63.4638 64.6642 63.2251 64.9852 62.9867C65.1006 62.9015 65.1432 62.8023 65.0416 62.6805C65.0258 62.6544 65.0043 62.6322 64.9785 62.6159C64.9528 62.5995 64.9237 62.5893 64.8933 62.5861C64.863 62.5828 64.8323 62.5867 64.8038 62.5973C64.7752 62.6079 64.7494 62.625 64.7286 62.6472C64.2552 63.0103 63.776 63.3662 63.2995 63.7257C63.1714 63.822 63.1721 63.8986 63.3069 63.9879C63.62 64.1948 63.933 64.3973 64.246 64.6022C64.4387 64.7281 64.4374 64.7763 64.2446 64.913C63.9547 65.1188 63.6661 65.3266 63.3789 65.5362C63.2133 65.6566 63.2128 65.7185 63.3758 65.8319C63.8136 66.1369 64.2524 66.4403 64.6922 66.7421C64.7668 66.7842 64.8443 66.821 64.9241 66.8523Z" fill="#155B74" stroke="#155B74" stroke-width="0.5" stroke-miterlimit="10"/>
<path d="M62.4536 66.8527C62.5089 66.7957 62.5949 66.747 62.6053 66.6854C62.6111 66.6444 62.6078 66.6026 62.5955 66.563C62.5832 66.5235 62.5623 66.4871 62.5342 66.4567C62.2453 66.2368 61.9472 66.0314 61.6481 65.8268C61.4916 65.7198 61.4769 65.6423 61.632 65.5231C61.8487 65.357 62.0772 65.2084 62.2971 65.0473C62.5764 64.8427 62.5648 64.6187 62.271 64.4299C62.0303 64.2755 61.7903 64.1203 61.5513 63.9643C61.4196 63.8788 61.416 63.7986 61.5424 63.7042C61.8635 63.4644 62.1845 63.2256 62.5056 62.9879C62.6233 62.9014 62.6614 62.8003 62.5648 62.6801C62.5493 62.6538 62.5279 62.6314 62.5022 62.6147C62.4765 62.5981 62.4473 62.5877 62.4169 62.5844C62.3865 62.5811 62.3557 62.5849 62.327 62.5956C62.2984 62.6063 62.2726 62.6235 62.2518 62.6459C61.7781 63.0095 61.2987 63.3657 60.8217 63.7249C60.6946 63.8212 60.6953 63.899 60.829 63.9874C61.142 64.1937 61.455 64.3967 61.7697 64.6014C61.9643 64.7278 61.9624 64.7735 61.7673 64.912C61.4771 65.1178 61.1881 65.3258 60.9005 65.5359C60.737 65.6551 60.7375 65.7196 60.9005 65.8332C61.3384 66.1382 61.7776 66.4418 62.2181 66.7439C62.2937 66.7862 62.3724 66.8226 62.4536 66.8527Z" fill="#155B74" stroke="#155B74" stroke-width="0.5" stroke-miterlimit="10"/>
<path d="M56.1161 71.4485C56.1628 71.4272 56.2065 71.4001 56.2463 71.3678C56.6282 71.0028 57.0096 70.6368 57.386 70.266C57.5305 70.1232 57.5232 70.0579 57.371 69.9233C57.0044 69.5986 56.637 69.2744 56.2687 68.9508C56.1055 68.8063 56.0978 68.7235 56.2526 68.5804C56.5375 68.317 56.8257 68.0572 57.1124 67.7959C57.2393 67.6804 57.249 67.5631 57.138 67.4531C57.0229 67.3392 56.9263 67.3902 56.825 67.4834C56.4435 67.8366 56.0602 68.1877 55.675 68.5369C55.4806 68.7131 55.4864 68.8073 55.6841 68.9789C56.0539 69.3002 56.4168 69.6291 56.7811 69.9568C56.806 69.9753 56.826 69.9995 56.8395 70.0273C56.853 70.0552 56.8595 70.0859 56.8586 70.1169C56.8577 70.1478 56.8494 70.1781 56.8343 70.2051C56.8192 70.2322 56.7978 70.2552 56.772 70.2722C56.5394 70.4988 56.2996 70.7177 56.0643 70.9409C56 70.9928 55.9433 71.0534 55.8958 71.121C55.8749 71.1566 55.8644 71.1973 55.8657 71.2385C55.8669 71.2798 55.8798 71.3198 55.9029 71.3541C55.9259 71.3883 55.9581 71.4153 55.9959 71.432C56.0336 71.4487 56.0752 71.4544 56.1161 71.4485Z" fill="#155B74" stroke="#155B74" stroke-width="0.5" stroke-miterlimit="10"/>
<path d="M67.0682 67.6308C66.7458 67.6308 66.4231 67.6359 66.1005 67.6287C65.9516 67.6253 65.8917 67.6937 65.8883 67.8324C65.885 67.9711 65.9408 68.0491 66.0896 68.0465C66.2666 68.044 66.4436 68.0464 66.6194 68.0539C66.7581 68.0592 66.8339 68.1153 66.8339 68.2783C66.8339 68.9415 66.8479 69.6046 66.8539 70.2675C66.8565 70.5478 66.852 70.828 66.8515 71.1083C66.8515 71.2583 66.9256 71.3366 67.0756 71.325C67.2343 71.3132 67.2586 71.2063 67.2586 71.0676C67.2586 70.5444 67.2685 70.0211 67.27 69.4979C67.27 69.1018 67.2615 68.7057 67.263 68.3096C67.263 68.0944 67.3078 68.0575 67.5216 68.058C67.6988 68.058 67.8763 68.0599 68.0537 68.058C68.1857 68.0563 68.2945 68.0099 68.3099 67.8608C68.3244 67.7149 68.2266 67.6268 68.0547 67.6253C67.7255 67.6224 67.3964 67.6253 67.0675 67.6253L67.0682 67.6308Z" fill="#155B74" stroke="#155B74" stroke-width="0.5" stroke-miterlimit="10"/>
<path d="M65.2252 70.5255C65.2252 69.7588 65.2252 68.9922 65.2252 68.2257C65.2252 68.1109 65.2089 67.996 65.2086 67.8812C65.2129 67.8525 65.2105 67.8232 65.2014 67.7957C65.1923 67.7681 65.1769 67.7431 65.1564 67.7226C65.136 67.7021 65.1109 67.6867 65.0834 67.6776C65.0559 67.6685 65.0266 67.666 64.9979 67.6702C64.8465 67.6702 64.8053 67.7726 64.8053 67.9004C64.8053 68.4429 64.8084 68.9854 64.807 69.5279C64.807 70.0365 64.7993 70.545 64.7966 71.0535C64.7966 71.1958 64.8381 71.3112 65.0056 71.3138C65.1732 71.3165 65.2209 71.2149 65.2168 71.0629C65.2117 70.884 65.2168 70.7046 65.2168 70.5255H65.2252Z" fill="#155B74" stroke="#155B74" stroke-width="0.5" stroke-miterlimit="10"/>
<path d="M61.2262 69.5025C61.2262 68.9728 61.224 68.443 61.2262 67.9133C61.2262 67.7568 61.1667 67.6665 61.0058 67.6711C60.845 67.6756 60.8132 67.7915 60.8132 67.9232C60.8132 68.7847 60.8132 69.6462 60.8132 70.5078C60.8132 70.6864 60.8111 70.8651 60.8091 71.0438C60.807 71.2265 60.8789 71.319 61.0258 71.3147C61.1944 71.3098 61.2295 71.2039 61.2283 71.0558C61.2245 70.5384 61.2269 70.0204 61.2269 69.5032L61.2262 69.5025Z" fill="#155B74" stroke="#155B74" stroke-width="0.5" stroke-miterlimit="10"/>
<path d="M55.6855 110C70.2274 109.818 84.1054 103.884 94.2837 93.497C104.462 83.1095 110.112 69.1137 109.998 54.5711C109.884 40.0285 104.016 26.123 93.6756 15.8963C83.3357 5.66958 69.3664 -0.0458384 54.8235 0.00027691C24.5399 0.082388 0.0382864 24.6317 0 54.9737C0.00433431 85.3878 24.6711 110.34 55.6855 110ZM55.0077 1.86355C84.1792 1.87318 107.868 25.3377 108.142 54.4861C108.215 61.5014 106.897 68.4614 104.264 74.9642C101.631 81.467 97.7354 87.3837 92.8027 92.3723C87.8699 97.3609 81.9975 101.323 75.5248 104.029C69.0521 106.735 62.1073 108.131 55.0917 108.138C25.8407 108.181 2.19124 84.6719 1.87604 55.6005C1.55482 25.9584 25.4335 1.88305 55.0077 1.86355Z" fill="#155B74"/>
<path d="M4.20474 56.0564C4.43061 58.6522 4.6283 61.253 4.95578 63.8369C5.17143 65.244 5.47836 66.6355 5.87465 68.0027C6.07957 68.7836 6.56092 68.9794 7.32737 68.7648C8.98717 68.3003 10.6503 67.8447 12.3077 67.3735C13.0934 67.15 13.8714 66.8994 14.61 66.6752C15.6172 69.832 16.807 72.828 18.4506 75.6568L16.3025 76.9169C15.9741 76.3448 15.6042 75.7869 15.3201 75.1875C14.7044 73.8846 14.1269 72.5629 13.5464 71.2438C13.191 70.4357 12.7965 70.2508 11.9752 70.5414C10.7651 70.9694 9.55472 71.3962 8.34401 71.8219C7.52843 72.1082 7.25729 72.6756 7.61487 73.4793C8.32787 75.0833 9.04352 76.687 9.80853 78.2663C10.2984 79.317 10.8548 80.3353 11.4743 81.315C12.4828 82.8561 13.5837 84.3397 14.6507 85.8437C15.0684 86.4327 15.6093 86.5092 16.1843 86.0604C16.9177 85.4887 17.6464 84.9108 18.3702 84.3267C18.6565 84.0955 18.9137 83.8282 19.2002 83.5971C19.7059 83.1901 20.2212 82.7979 20.7336 82.4005C21.2248 82.0194 21.7173 81.6396 22.2282 81.2447C24.2652 83.8003 26.5967 86.1065 29.1745 88.1153L27.5888 90.1987C25.9738 88.6901 24.4286 87.2579 22.8972 85.8104C22.3551 85.2985 21.8266 85.2496 21.2853 85.7522C20.3089 86.6583 19.3481 87.5822 18.3777 88.4941C17.7824 89.0542 17.7124 89.492 18.2715 90.0805C19.2855 91.1474 20.3098 92.2115 21.4062 93.1915C22.3453 94.0302 23.3732 94.7716 24.392 95.5159C25.596 96.3965 26.8291 97.2383 28.0555 98.0883C28.5176 98.4083 28.9833 98.7269 29.4711 99.0045C30.116 99.3713 30.7045 99.183 31.0642 98.5507C31.3946 97.9699 31.7485 97.4023 32.0693 96.8169C32.6176 95.8155 33.1447 94.8027 33.6869 93.7978C34.0426 93.139 34.4093 92.4862 34.7823 91.8103C37.6769 93.3661 40.6608 94.6693 43.8897 95.4911C43.666 96.2754 43.4452 97.0486 43.2048 97.8906C42.1752 97.5937 41.2005 97.3638 40.2628 97.0291C39.1872 96.6438 38.1484 96.1584 37.0858 95.736C36.466 95.4894 36.0458 95.6443 35.7691 96.2224C35.1398 97.5379 34.5228 98.8594 33.9181 100.187C33.7349 100.59 33.7568 101.019 34.1948 101.246C35.0484 101.692 35.89 102.205 36.7994 102.488C39.5842 103.356 42.3868 104.166 45.2073 104.918C46.203 105.183 47.2577 105.239 48.2895 105.358C49.0513 105.445 49.5539 105.127 49.6117 104.559C49.7802 102.912 49.9331 101.264 50.0964 99.6164C50.1896 98.6788 50.2905 97.7416 50.3911 96.7719C53.656 97.132 56.9519 97.1089 60.2115 96.703C60.3193 97.5321 60.4229 98.3262 60.53 99.1502C60.276 99.177 60.0858 99.2075 59.8943 99.2157C57.9757 99.2974 56.057 99.3737 54.1393 99.4551C53.4324 99.4849 53.0444 99.8777 53.0124 100.583C52.9508 101.94 52.8893 103.296 52.828 104.652C52.7919 104.889 52.8469 105.132 52.982 105.331C53.117 105.53 53.3222 105.67 53.5564 105.724C53.7942 105.787 54.0394 105.816 54.2853 105.813C57.0892 105.881 59.8933 105.683 62.6596 105.22C64.494 104.907 66.3168 104.516 68.131 104.099C68.9379 103.914 69.1637 103.396 68.9412 102.63C68.2685 100.317 67.5978 98.003 66.9294 95.6883C66.8966 95.5754 66.8745 95.4596 66.8509 95.3589C69.9543 94.3196 72.9652 93.1677 75.782 91.4807L77.0705 93.6678C76.0743 94.193 75.1261 94.7273 74.1467 95.199C73.1674 95.6707 72.1462 96.0611 71.1592 96.5205C70.5813 96.7895 70.4281 97.2333 70.6396 97.8319C71.0908 99.1076 71.5454 100.382 72.0034 101.655C72.2714 102.398 72.8773 102.677 73.5927 102.352C75.303 101.574 77.0071 100.782 78.705 99.9771C79.1319 99.7746 79.5251 99.5008 79.933 99.2569C81.195 98.5001 82.4754 97.7714 83.7114 96.9739C84.5368 96.4415 85.3006 95.8131 86.0882 95.2224C86.1937 95.143 86.2823 95.0435 86.349 94.9296C86.4157 94.8157 86.459 94.6897 86.4766 94.5589C86.4942 94.4281 86.4856 94.2951 86.4513 94.1676C86.417 94.0401 86.3578 93.9208 86.277 93.8164C85.8177 93.2187 85.3501 92.6277 84.8742 92.0432C83.9293 90.8874 82.9731 89.7429 82.026 88.5897C81.8379 88.3807 81.674 88.1511 81.5377 87.9051C81.5146 87.8312 81.5098 87.7528 81.5239 87.6767C81.538 87.6006 81.5704 87.5291 81.6184 87.4683C82.3092 86.8206 83.0499 86.2241 83.7227 85.5586C84.8807 84.4131 86.0102 83.2387 87.1316 82.0564C87.514 81.6534 87.8338 81.1896 88.206 80.7253L90.1952 82.225C89.8044 82.7198 89.4728 83.1961 89.0837 83.6216C88.004 84.8054 86.8968 85.9638 85.8089 87.1408C85.3485 87.6393 85.3454 88.0525 85.7981 88.5374C86.7452 89.5488 87.6993 90.5535 88.6604 91.5515C89.2142 92.1243 89.6448 92.1407 90.2509 91.5883C90.7806 91.1067 91.2863 90.5936 91.7732 90.0679C92.7152 89.0518 93.7029 88.0693 94.5507 86.9773C95.7017 85.4962 96.7465 83.9322 97.8212 82.3928C98.2436 81.7877 98.6471 81.1665 99.017 80.5281C99.461 79.7622 99.271 79.1556 98.5157 78.7342C96.7509 77.751 94.9907 76.7597 93.2203 75.7852C92.7965 75.5519 92.3405 75.3758 91.8704 75.1613C93.4243 72.1995 94.7436 69.2226 95.5274 65.9754L97.9548 66.6723C97.6165 67.7908 97.3317 68.8611 96.9661 69.9033C96.629 70.865 96.1971 71.7933 95.8219 72.742C95.5549 73.4163 95.7116 73.835 96.342 74.1304C97.5835 74.7124 98.8477 75.2487 100.07 75.8673C100.772 76.2225 101.299 75.9636 101.642 75.2429C102.017 74.5052 102.338 73.7413 102.603 72.9573C103.371 70.4711 104.141 67.9827 104.794 65.4654C105.12 64.2121 105.221 62.8969 105.376 61.6041C105.489 60.6628 105.135 60.2679 104.216 60.1899C102.899 60.0779 101.58 59.983 100.266 59.8564C99.1167 59.7456 97.9703 59.6009 96.8669 59.4764C96.924 57.8347 97.0292 56.2695 97.0182 54.7053C97.0068 53.1281 96.88 51.5509 96.8014 49.9301L99.1559 49.6368C99.1909 49.8031 99.217 49.971 99.2342 50.1401C99.3139 51.9701 99.3955 53.8001 99.4618 55.6302C99.4878 56.3432 99.8333 56.7915 100.456 56.8224C101.847 56.8912 103.239 56.9531 104.63 57.008C105.335 57.035 105.744 56.6596 105.812 55.9516C105.828 55.7942 105.825 55.6348 105.828 55.4761C105.891 51.7606 105.436 48.0923 104.786 44.4457C104.621 43.5996 104.401 42.7653 104.126 41.9482C103.924 41.3147 103.477 41.0243 102.99 41.1591C101.075 41.6889 99.1648 42.2369 97.2534 42.7804C96.6206 42.9605 95.9897 43.1474 95.3964 43.32C94.4614 40.1935 93.1754 37.1828 91.563 34.3456L93.7219 33.0889C94.1149 33.7872 94.543 34.4554 94.8799 35.1672C95.4441 36.3584 95.9519 37.5751 96.4788 38.7842C96.8205 39.5675 97.219 39.7534 98.0124 39.4757C99.24 39.046 100.467 38.6139 101.693 38.1793C102.454 37.9108 102.736 37.3563 102.431 36.6047C101.944 35.4008 101.463 34.1879 100.898 33.0188C100.312 31.7606 99.6526 30.5379 98.9231 29.3573C97.7702 27.5528 96.5151 25.8135 95.2888 24.0562C95.2164 23.9503 95.1228 23.8607 95.0139 23.7929C94.905 23.7252 94.7832 23.6809 94.6562 23.6627C94.5293 23.6446 94.3999 23.6531 94.2764 23.6877C94.1529 23.7223 94.038 23.7822 93.9389 23.8636C93.4915 24.1992 93.0508 24.5437 92.6169 24.8971C91.2803 25.9806 89.9508 27.0755 88.611 28.1562C88.3551 28.3626 88.0637 28.5254 87.7683 28.7218C85.7333 26.1838 83.4091 23.8919 80.8428 21.8927L82.334 19.9227C82.7234 20.1761 83.0983 20.4511 83.4568 20.7465C84.7104 21.9052 85.9462 23.0822 87.1834 24.2599C87.2775 24.3637 87.3917 24.4474 87.5192 24.5057C87.6466 24.5641 87.7845 24.596 87.9246 24.5995C88.0647 24.603 88.2041 24.578 88.3342 24.526C88.4644 24.4741 88.5826 24.3962 88.6818 24.2972C89.6575 23.3885 90.6288 22.4743 91.5955 21.5548C92.2651 20.9148 92.2868 20.4732 91.6513 19.8038C91.0616 19.1823 90.4346 18.5957 89.8254 17.9925C89.4257 17.5971 89.0577 17.163 88.624 16.8097C87.6594 16.0242 86.6789 15.2564 85.6745 14.5222C84.4414 13.6214 83.1799 12.7591 81.9254 11.8881C81.492 11.5874 81.0554 11.2876 80.5971 11.0278C79.8868 10.6249 79.325 10.7963 78.9328 11.5026C78.1995 12.8225 77.4682 14.1434 76.7389 15.4654L75.2339 18.1844C72.3297 16.6404 69.354 15.3168 66.1198 14.5166L66.8182 12.1217C67.8329 12.4087 68.7927 12.6274 69.7164 12.9553C70.7592 13.3259 71.7674 13.7945 72.7911 14.2195C73.5659 14.5414 73.9666 14.3929 74.3242 13.6339C74.8711 12.4729 75.4136 11.31 75.9515 10.1452C76.3678 9.24924 76.2091 8.79896 75.2977 8.38744C74.5557 8.02025 73.7918 7.69922 73.0102 7.42619C70.5245 6.65564 68.0361 5.88727 65.5195 5.22965C64.2838 4.90675 62.9859 4.80947 61.7114 4.64982C60.9704 4.55735 60.4667 4.87448 60.4087 5.40712C60.2501 6.86024 60.0994 8.31432 59.9567 9.76936C59.8464 10.9037 59.7556 12.0398 59.6511 13.2315C56.3757 12.8725 53.0696 12.8959 49.7995 13.3011C49.6914 12.4682 49.5888 11.6772 49.4838 10.8664C49.6692 10.8392 49.7716 10.8151 49.8746 10.8106C51.8282 10.7219 53.7815 10.6271 55.7356 10.5529C56.5829 10.5209 56.9701 10.1737 57.007 9.34701C57.0674 7.99109 57.124 6.63493 57.1948 5.27974C57.2181 5.07586 57.1697 4.87022 57.0578 4.6982C56.9459 4.52618 56.7776 4.39855 56.5817 4.33727C56.2833 4.23618 55.97 4.18588 55.6549 4.18846C52.8514 4.12851 50.0484 4.332 47.2829 4.79622C45.4837 5.10661 43.6951 5.48249 41.9132 5.88606C41.0846 6.07388 40.8518 6.59135 41.0842 7.38983C41.7475 9.66935 42.4095 11.9489 43.0702 14.2284C43.1124 14.3743 43.1377 14.5253 43.1639 14.6433C40.0555 15.6859 37.0477 16.8468 34.2336 18.5239L32.9424 16.3262C33.9588 15.8018 34.9304 15.2732 35.9261 14.7947C36.9083 14.3228 37.9247 13.9214 38.9064 13.4499C39.4588 13.185 39.5876 12.753 39.3769 12.1633C38.922 10.8894 38.4645 9.61621 38.0044 8.34385C37.7436 7.62484 37.1474 7.32987 36.4652 7.63279C34.9081 8.32306 33.3599 9.03253 31.8208 9.76117C31.2188 10.0472 30.6508 10.4058 30.0769 10.7484C28.8267 11.4932 27.5643 12.2194 26.3446 13.01C25.5057 13.553 24.7262 14.1884 23.9242 14.7882C23.8197 14.8687 23.7321 14.969 23.6665 15.0834C23.6008 15.1977 23.5584 15.3239 23.5415 15.4547C23.5246 15.5855 23.5337 15.7183 23.5682 15.8456C23.6027 15.9728 23.662 16.0921 23.7426 16.1964C24.1243 16.697 24.518 17.1887 24.9165 17.6759C26.0174 19.0219 27.1207 20.3659 28.2264 21.7077C28.3404 21.817 28.4291 21.9499 28.4863 22.0971C28.504 22.1726 28.5055 22.2511 28.4905 22.3272C28.4755 22.4033 28.4444 22.4753 28.3993 22.5385C27.7085 23.1864 26.9678 23.7827 26.295 24.4477C25.1375 25.5917 24.0075 26.7644 22.888 27.945C22.5061 28.3476 22.188 28.8119 21.8131 29.281L19.829 27.7835C20.1916 27.3113 20.4926 26.8545 20.8572 26.456C21.9506 25.2609 23.071 24.0906 24.1763 22.9064C24.6766 22.3704 24.6843 21.9712 24.182 21.433C23.2484 20.4329 22.3067 19.4406 21.357 18.4563C20.8095 17.8887 20.3939 17.8577 19.8078 18.384C19.2489 18.8866 18.735 19.4394 18.2043 19.9733C17.7331 20.4469 17.2279 20.8938 16.8046 21.4077C16.0141 22.3678 15.2511 23.3502 14.5156 24.3548C13.6246 25.5732 12.7727 26.8203 11.9133 28.0611C11.5933 28.5234 11.2752 28.9901 10.9983 29.4791C10.659 30.0811 10.7293 30.8242 11.1346 31.0672C11.8587 31.5006 12.5916 31.92 13.3333 32.3253C14.3964 32.9066 15.4684 33.4718 16.539 34.0393C17.0608 34.316 17.5879 34.5823 18.1357 34.8652C16.5907 37.8176 15.2618 40.8061 14.4886 44.0333L12.077 43.335C12.3819 42.2798 12.6309 41.2552 12.9771 40.2653C13.3318 39.254 13.7896 38.279 14.191 37.2838C14.4715 36.5881 14.3188 36.1879 13.6386 35.8665C12.4303 35.2953 11.2193 34.7294 9.99996 34.1823C9.14995 33.8012 8.73601 33.9952 8.33605 34.8445C7.07694 37.5174 6.25415 40.3428 5.54597 43.1939C5.12313 44.8958 4.90305 46.6502 4.63865 48.388C4.50044 49.2966 4.90112 49.7425 5.78412 49.8174C7.45162 49.959 9.12009 50.0919 10.7864 50.2484C11.5861 50.3235 12.3814 50.4442 13.216 50.5489C12.8848 53.7161 12.9079 56.9103 13.2849 60.0724L10.8485 60.3654C10.8297 60.1969 10.8153 60.1114 10.8114 60.0254C10.7257 58.16 10.6328 56.2948 10.5598 54.4286C10.5266 53.5781 10.2078 53.2162 9.35053 53.1729C8.04783 53.1069 6.74465 53.0494 5.44099 53.0005C4.643 52.9699 4.23701 53.3376 4.20161 54.1536C4.1616 54.7873 4.16264 55.4229 4.20474 56.0564ZM6.03791 55.045H8.72013C8.73121 55.2187 8.7442 55.4029 8.7548 55.5876C8.87014 57.538 8.96573 59.4918 9.10925 61.4413C9.17835 62.3804 9.70282 62.7199 10.6212 62.5578C11.8348 62.3435 13.0507 62.1429 14.2688 61.9559C14.9911 61.8441 15.3242 61.4442 15.2035 60.7059C14.841 58.337 14.7131 55.9382 14.8219 53.5442C14.8626 52.3838 14.9815 51.2244 15.1058 50.069C15.199 49.2022 14.9066 48.788 14.0374 48.6618C11.6517 48.3152 9.26665 47.9653 6.88214 47.612C6.79811 47.5997 6.71599 47.5727 6.63917 47.5542C6.64905 45.4973 8.46923 38.6953 9.61541 36.4658L12.091 37.5364C11.7402 38.4579 11.3518 39.3423 11.0674 40.2574C10.6821 41.4984 10.3537 42.7585 10.0484 44.0219C9.90773 44.6037 10.1849 45.0277 10.7756 45.1763C12.124 45.5151 13.4773 45.8325 14.8373 46.1169C15.4703 46.2491 15.8301 45.9553 16.0266 45.2825C16.4053 43.9844 16.7078 42.6578 17.1824 41.3954C17.9934 39.2412 18.8855 37.1162 20.0837 35.1361C20.5412 34.381 20.4208 33.9878 19.6683 33.5252C18.0538 32.531 16.4441 31.5293 14.8257 30.5415C14.2719 30.2044 13.6976 29.8979 13.0751 29.5446C15.0764 26.2991 17.4324 23.2863 20.0996 20.5615L22.0741 22.3615C21.5217 22.995 21.0293 23.5633 20.533 24.1282C20.023 24.7085 19.4945 25.2737 19.0013 25.8677C18.5641 26.3941 18.1497 26.9409 17.7516 27.4976C17.2958 28.1348 17.3827 28.5571 18.0211 29.0171C19.0611 29.7635 20.0967 30.5179 21.1423 31.2564C21.8577 31.7621 22.2058 31.6461 22.7606 30.9648C23.7479 29.7539 24.7308 28.5294 25.8279 27.4215C27.16 26.0762 28.6086 24.845 30.0054 23.565C30.2125 23.375 30.421 23.186 30.6166 22.9842C30.7866 22.8379 30.8916 22.6301 30.9086 22.4064C30.9257 22.1827 30.8533 21.9614 30.7073 21.791C30.1054 20.9483 29.5063 20.1023 28.8922 19.2682C28.1831 18.3051 27.4506 17.3578 26.7455 16.3912C26.5202 16.0823 26.3497 15.7334 26.1301 15.3618C29.2363 13.153 32.4885 11.2344 36.0653 9.79946C36.3976 10.6263 36.7217 11.4323 37.0643 12.2852C36.7956 12.4205 36.5346 12.5513 36.275 12.6825C34.9747 13.3384 33.6744 13.9945 32.3741 14.6508C31.9667 14.8562 31.5415 15.0329 31.1547 15.2718C30.4564 15.7033 30.3746 16.2068 30.8121 16.8918C31.474 17.9272 32.1138 18.9776 32.7693 20.0178C33.2677 20.8084 33.758 20.9023 34.5813 20.42C35.4293 19.8844 36.3054 19.3947 37.2059 18.953C38.9358 18.1753 40.6948 17.4601 42.462 16.7705C43.1285 16.5104 43.856 16.4093 44.5458 16.2051C45.2514 15.9954 45.4707 15.5309 45.2976 14.8251C44.6893 12.349 44.0963 9.86905 43.4993 7.39849C44.6359 6.79338 52.5874 5.82153 54.7856 6.01729V8.76524C54.4066 8.76524 54.024 8.74574 53.6438 8.76838C51.9563 8.86975 50.2674 8.95884 48.583 9.09995C47.4082 9.19843 47.1091 9.67954 47.3405 10.8351C47.5618 11.9401 47.747 13.0521 47.9382 14.1627C48.1004 15.1061 48.407 15.3375 49.3348 15.1981C52.8951 14.6662 56.5126 14.6375 60.081 15.1128C60.9541 15.2267 61.3572 14.9236 61.4877 14.0505C61.8315 11.7533 62.1749 9.45601 62.5178 7.15866C62.5431 6.99011 62.5857 6.82155 62.6184 6.66214C64.6411 6.6737 71.6673 8.57911 73.6904 9.67641L72.6155 12.1773C72.0078 11.9254 71.4556 11.6476 70.8736 11.4648C69.366 10.9904 67.849 10.5438 66.3279 10.1139C65.5783 9.90228 65.1367 10.1674 64.9464 10.9249C64.6204 12.2223 64.3163 13.5255 64.0194 14.8304C63.8918 15.3907 64.16 15.8266 64.7317 16.0103C65.3686 16.2135 66.0045 16.4336 66.6563 16.573C68.4645 16.9597 70.1185 17.7361 71.7648 18.5331C72.9172 19.0912 74.0523 19.687 75.1937 20.2668C75.7545 20.5512 76.1766 20.4354 76.5306 19.8606C77.7928 17.8108 79.0502 15.7577 80.3027 13.7013C80.4021 13.5388 80.5081 13.3803 80.6533 13.1542C81.1052 13.4733 81.5351 13.7656 81.9536 14.0733C83.5669 15.2602 85.1937 16.4261 86.7752 17.6523C87.591 18.2846 88.331 19.0173 89.0869 19.7231C89.6621 20.2603 89.638 20.2748 89.0787 20.8177C88.612 21.2707 88.1767 21.7568 87.77 22.1823C86.5306 21.0884 85.3601 20.0378 84.1684 19.012C83.6767 18.589 83.1498 18.2039 82.6196 17.829C82.0053 17.3956 81.576 17.4746 81.137 18.0777C80.3727 19.1278 79.6126 20.1809 78.8567 21.2372C78.3818 21.9037 78.4782 22.2709 79.0989 22.7882C80.2998 23.7884 81.5293 24.7661 82.636 25.8648C83.9659 27.1851 85.1802 28.6219 86.4439 30.0091C86.5161 30.0871 86.5734 30.1777 86.6447 30.2545C87.5164 31.2037 87.6394 31.2598 88.703 30.5206C90.3318 29.3888 91.9107 28.1849 93.5165 27.0192C93.8832 26.7531 94.2741 26.52 94.7191 26.2291C96.9617 29.3128 98.8244 32.6555 100.267 36.185L97.7603 37.2294C97.5549 36.7105 97.3965 36.2089 97.1646 35.7441C96.6228 34.6577 96.0466 33.5881 95.4817 32.5129C95.2616 32.0944 95.0542 31.667 94.8057 31.2656C94.3754 30.5699 93.8666 30.4991 93.1784 30.9429C92.1156 31.6287 91.0306 32.2798 89.9578 32.9504C89.3337 33.3405 89.2044 33.87 89.5682 34.5236C90.0905 35.4626 90.6857 36.3666 91.1249 37.3409C91.8892 39.038 92.5837 40.7681 93.255 42.5047C93.5199 43.1888 93.6364 43.9292 93.8329 44.6405C94.0371 45.3767 94.4922 45.6037 95.2356 45.4226C97.7092 44.818 100.187 44.2305 102.644 43.6408C103.202 44.648 104.248 52.8266 103.988 54.9649H101.252C101.252 54.5485 101.272 54.1462 101.248 53.7479C101.141 51.9918 101.034 50.2354 100.901 48.4812C100.838 47.6678 100.28 47.2862 99.4687 47.4256C98.2026 47.6433 96.9356 47.8556 95.6678 48.0625C95.0097 48.1694 94.7362 48.5889 94.8067 49.3291C94.9589 50.9238 95.1903 52.5201 95.2006 54.117C95.2129 56.0299 95.0593 57.9457 94.9167 59.8564C94.8445 60.8328 95.0853 61.2166 96.0562 61.3573C98.4253 61.7 100.794 62.0479 103.161 62.4011C103.229 62.411 103.295 62.4317 103.4 62.4557C103.07 66.3244 101.721 69.9045 100.467 73.5723L97.9279 72.4663C98.2496 71.61 98.5951 70.8029 98.8559 69.9695C99.2549 68.6957 99.6142 67.4082 99.9537 66.1168C100.131 65.4406 99.8429 64.9689 99.1651 64.8009C97.8667 64.4792 96.5631 64.1765 95.2543 63.9012C94.5662 63.7568 94.2009 64.0216 93.9995 64.7074C93.6384 65.9369 93.3328 67.1857 92.9054 68.3916C92.5009 69.533 91.9986 70.643 91.4871 71.7425C90.9694 72.8554 90.3893 73.9393 89.8338 75.0341C89.5422 75.6084 89.6388 76.0296 90.2022 76.3826C90.9456 76.8473 91.7137 77.2735 92.4597 77.7337C93.3578 78.289 94.2384 78.8731 95.1376 79.427C95.7174 79.7841 96.3174 80.1094 96.9452 80.4708C94.8674 83.7403 92.589 86.7731 89.8796 89.4722L87.9987 87.6988C89.4606 85.919 90.8863 84.2118 92.2759 82.4757C92.7433 81.892 92.6232 81.4345 92.014 80.9979C90.973 80.2514 89.9371 79.4997 88.8916 78.7602C88.1692 78.2497 87.8215 78.3547 87.2679 79.0239C86.2043 80.3092 85.1518 81.6134 83.9825 82.7986C82.7034 84.095 81.2959 85.2648 79.9475 86.4933C79.7053 86.6679 79.4963 86.8842 79.3301 87.1322C79.1914 87.4019 79.1525 87.712 79.22 88.0077C79.3718 88.4014 79.5838 88.769 79.8485 89.0975C80.7835 90.3766 81.7378 91.6415 82.6846 92.912C83.0908 93.4571 83.4966 94.0028 83.9367 94.5951C80.8451 96.8631 77.4911 98.7497 73.9474 100.214C73.6151 99.3785 73.2883 98.5572 72.9408 97.6831C73.4246 97.4904 73.8941 97.3445 74.3269 97.1254C75.4251 96.5694 76.5063 95.9799 77.5952 95.4052C77.998 95.1925 78.4139 95.0023 78.8044 94.7685C79.567 94.311 79.6583 93.8253 79.1844 93.0803C78.5153 92.028 77.8656 90.9634 77.2029 89.9068C76.7984 89.262 76.2593 89.1282 75.5857 89.5054C74.6948 90.0058 73.8426 90.5852 72.916 91.0029C71.1395 91.8038 69.3316 92.5387 67.5169 93.2503C66.8511 93.5115 66.1237 93.6115 65.4343 93.8171C64.7601 94.0189 64.5491 94.4769 64.7172 95.1656C65.2999 97.5583 65.8694 99.9542 66.442 102.35C66.4661 102.449 66.4726 102.553 66.4866 102.648C65.0144 103.25 56.7977 104.277 55.2075 103.949V101.283C55.4047 101.272 55.5908 101.265 55.7765 101.252C57.7777 101.115 59.7819 101.009 61.7786 100.824C62.5973 100.748 62.8754 100.265 62.7294 99.4433C62.5019 98.1603 62.2638 96.8793 62.0242 95.5985C61.9006 94.939 61.6033 94.7146 60.9086 94.7837C59.8221 94.8915 58.7397 95.0536 57.6513 95.1311C55.1384 95.3079 52.6143 95.2401 50.1144 94.9286C49.7216 94.8873 49.3247 94.9466 48.961 95.1008C48.765 95.1851 48.6059 95.5292 48.5666 95.7777C48.2986 97.482 48.0732 99.1931 47.8202 100.9C47.6998 101.714 47.5505 102.524 47.4029 103.404C46.4248 103.251 45.4726 103.181 44.5644 102.943C42.7442 102.467 40.945 101.91 39.1441 101.364C38.3206 101.114 37.5144 100.807 36.6983 100.532C36.438 100.444 36.3104 100.319 36.4424 100.026C36.7669 99.3072 37.0781 98.5815 37.4087 97.8271C37.8903 98.0293 38.3299 98.2557 38.7954 98.4021C40.4371 98.9192 42.0843 99.4191 43.737 99.902C44.4035 100.096 44.8853 99.8127 45.059 99.1298C45.3961 97.7994 45.7106 96.4627 46.0115 95.1237C46.1375 94.5619 45.7869 94.1265 45.1425 93.9397C43.8774 93.5727 42.5855 93.2744 41.3575 92.8079C39.1884 91.9861 37.0455 91.0911 35.0554 89.8736C34.2641 89.3896 33.8789 89.4963 33.404 90.2714C32.175 92.278 30.9469 94.2862 29.7198 96.2959C29.6197 96.4598 29.5118 96.6192 29.3661 96.8449C28.9515 96.5545 28.5496 96.2855 28.1621 95.9982C26.4544 94.7348 24.7282 93.494 23.0544 92.1874C22.2278 91.5421 21.5044 90.7653 20.7257 90.0573C20.4249 89.784 20.5063 89.5904 20.7625 89.3282C21.2781 88.8014 21.7544 88.2362 22.2391 87.6954C23.8159 89.3253 25.5303 90.8163 27.3632 92.1518C27.9936 92.6233 28.4316 92.5385 28.8836 91.9153C29.6358 90.8784 30.3897 89.8428 31.1357 88.8014C31.6414 88.0968 31.5605 87.7488 30.9058 87.2054C29.0276 85.6462 27.1253 84.1114 25.5083 82.2664C24.6757 81.316 23.8627 80.348 23.0226 79.4043C22.549 78.8724 22.1724 78.8505 21.5921 79.2652C20.077 80.3476 18.5632 81.4317 17.0507 82.5173C16.4865 82.9238 15.9363 83.3502 15.3225 83.8104C13.0672 80.7176 11.1964 77.3619 9.75121 73.8174L12.2555 72.7714C12.4753 73.3178 12.6513 73.8526 12.8998 74.3515C13.4255 75.4069 13.9877 76.444 14.5372 77.4876C14.7573 77.9056 14.9635 78.333 15.2115 78.7347C15.6399 79.4313 16.154 79.5023 16.8393 79.0588C17.9012 78.3718 18.9859 77.7205 20.0589 77.0508C20.6819 76.6622 20.8148 76.1247 20.4495 75.4774C19.9566 74.6034 19.3881 73.764 18.9787 72.8528C18.1937 71.1061 17.473 69.329 16.7779 67.5442C16.5488 66.8426 16.3559 66.1297 16.1999 65.4084C15.9799 64.6056 15.5549 64.399 14.7275 64.6C12.2692 65.1982 9.80611 65.7753 7.35699 66.3578C6.77017 65.0655 5.75497 56.9586 6.03791 55.0438V55.045Z" fill="#155B74"/>
<path d="M55.0824 92.6848C75.6867 92.6367 93.1131 75.8557 92.6705 54.0967C92.4391 44.1525 88.2816 34.704 81.1063 27.8151C73.931 20.9263 64.3211 17.157 54.3757 17.3307C34.4978 17.5563 16.3301 34.1365 17.3838 56.9867C18.2605 76.0098 33.9507 92.5998 55.0824 92.6848ZM53.0838 19.2462C74.8842 18.2147 90.8058 35.6186 90.8284 54.8215C90.8525 74.919 74.7594 90.8926 54.8659 90.81C35.0557 90.7288 19.2822 74.8046 19.1724 54.9679C19.3713 34.8957 35.0858 20.0979 53.0826 19.2462H53.0838Z" fill="#155B74"/>
<path d="M36.7288 70.9622L32.3843 79.6765H33.1127L34.646 76.5703H39.5277L41.0738 79.6765H41.7897C40.4225 76.9797 38.8121 73.6583 37.4449 70.9622H36.7288ZM34.9785 75.9197L37.0611 71.7286H37.1121L39.207 75.9197H34.9785Z" fill="#155B74" stroke="#155B74" stroke-miterlimit="10"/>
<path d="M44.1907 74.7693C44.1907 74.0151 45.2003 73.6065 46.312 73.6065C47.4875 73.6065 48.7654 74.0664 49.0974 75.0375L49.711 74.7693C49.2891 73.5552 47.7688 72.9805 46.3758 72.9805C44.9191 72.9805 43.5394 73.6065 43.5394 74.7948C43.5519 77.2354 49.1738 75.881 49.1738 77.9766C49.1738 78.9219 48.1384 79.3438 46.9631 79.3438C45.5702 79.3438 44.0113 78.7685 43.8451 77.8615L43.2446 78.1297C43.5897 79.3052 45.2889 79.9698 46.8608 79.9698C48.4196 79.9698 49.8379 79.3438 49.8379 77.9508C49.8386 75.2041 44.1907 76.5198 44.1907 74.7693Z" fill="#155B74" stroke="#155B74" stroke-miterlimit="10"/>
<path d="M53.2141 76.9799V73.8738H54.6695V73.2236H53.2141V71.3785V65.1941H52.5503V71.0907V73.2244H51.6558V73.8745H52.5503V76.9948C52.5503 78.6563 53.0969 79.7425 54.8363 79.7425C54.8859 79.7425 54.95 79.7283 55.0032 79.7283V79.1034C53.5833 79.1027 53.2141 78.3608 53.2141 76.9799Z" fill="#155B74" stroke="#155B74" stroke-miterlimit="10"/>
<path d="M60.1374 73.0315C58.0548 73.0315 56.7131 74.3732 56.7131 76.52C56.7131 78.5771 58.0933 79.9315 60.1759 79.9315C61.5561 79.9315 62.7444 79.3567 63.2553 78.1427L62.7444 77.8872C62.2715 78.8583 61.2756 79.344 60.1631 79.344C58.5405 79.344 57.4663 78.2833 57.3649 76.737C58.0933 76.737 63.0637 76.7755 63.447 76.7755L63.5621 76.1367C63.4602 74.2838 62.0935 73.0315 60.1374 73.0315ZM57.3777 76.2005C57.48 74.6161 58.5532 73.6323 60.1374 73.6323C61.773 73.6323 62.9105 74.6799 62.9105 76.226C62.1065 76.226 58.4133 76.2005 57.3787 76.2005H57.3777Z" fill="#155B74" stroke="#155B74" stroke-miterlimit="10"/>
<path d="M66.8375 74.988C66.8375 74.386 66.8247 73.825 66.8117 73.2247H66.2114V79.6778H66.8755V75.9709C67.3869 74.3993 69.2779 73.7474 70.4791 73.7474V73.0834C69.7626 73.0783 69.0557 73.2494 68.4208 73.5815C67.7858 73.9136 67.2421 74.3966 66.8375 74.988Z" fill="#155B74" stroke="#155B74" stroke-miterlimit="10"/>
<path d="M79.5782 71.0896L75.86 76.2641C74.7738 74.7691 73.2149 72.5969 72.1159 71.0889H71.2732L75.5024 76.8661V79.677H76.218V76.8661C77.4701 75.1806 79.1556 72.8155 80.4344 71.0903L79.5782 71.0896Z" fill="#155B74" stroke="#155B74" stroke-miterlimit="10"/>
<path d="M52.8424 64.8629C52.6569 64.8509 52.029 64.7685 51.8243 64.7493C49.6524 62.0886 47.0215 59.0322 43.2169 56.0327C40.8953 54.2033 38.435 52.557 35.8584 51.1086C39.5805 51.7967 43.0708 53.4069 46.01 55.792C48.9941 58.2122 51.3399 61.3266 52.8424 64.8629Z" fill="#155B74"/>
<path d="M51.9473 64.7618C49.4861 64.5385 47.0987 63.8031 44.9385 62.6026C38.5119 59.0727 36.3616 52.7448 35.8584 51.1074C38.435 52.5558 40.8953 54.2021 43.2169 56.0315C46.4435 58.6069 49.3719 61.5351 51.9473 64.7618Z" fill="#CDEFF9"/>
<path d="M53.1451 59.3778L41.7927 42.8357C44.9243 44.4147 47.6067 46.7586 49.5912 49.6503C51.5756 52.542 52.7981 55.8879 53.1451 59.3778Z" fill="#CDEFF9"/>
<path d="M53.1427 59.378C51.717 58.9479 50.3622 58.3108 49.1215 57.4871C43.0034 53.4089 42.0315 46.1757 41.9075 45.1326C41.8174 44.3708 41.7783 43.6039 41.7905 42.8369L53.1427 59.378Z" fill="#155B74"/>
<path d="M52.5283 50.4577L48.0039 35.9863C49.9142 37.8233 51.3303 40.1125 52.1211 42.642C52.912 45.1715 53.052 47.8597 52.5283 50.4577Z" fill="#CDEFF9"/>
<path d="M52.5273 50.4581C51.5922 49.8307 50.7542 49.0695 50.0402 48.1988C46.5285 43.8916 47.4349 38.4503 47.5781 37.6709C47.6821 37.1002 47.824 36.5371 48.0029 35.9854L52.5273 50.4581Z" fill="#155B74"/>
<path d="M59.5207 29.5532C57.1144 34.4241 55.4954 39.6457 54.7242 45.0236C54.1566 42.2496 54.2985 39.3773 55.137 36.6728C55.9755 33.9684 57.4834 31.5195 59.5207 29.5532Z" fill="#155B74"/>
<path d="M56.12 43.7997C55.6822 44.2377 55.2162 44.6465 54.7249 45.0236C55.4961 39.6457 57.115 34.4241 59.5213 29.5532C59.9616 30.672 60.2362 31.849 60.3364 33.0471C60.8134 38.9649 56.7186 43.2006 56.12 43.7997Z" fill="#155B74"/>
<path d="M62.9744 43.2219C59.2234 46.0292 55.9407 49.4131 53.2485 53.2476C53.8961 50.8936 55.1268 48.7409 56.8268 46.9885C58.5268 45.2361 60.6412 43.9407 62.9744 43.2219Z" fill="#CDEFF9"/>
<path d="M54.799 52.852C54.2915 53.018 53.7735 53.1501 53.2485 53.2476C55.9407 49.4131 59.2234 46.0292 62.9744 43.2219C62.8778 44.254 62.6294 45.2662 62.2374 46.2257C60.2985 50.9656 55.4936 52.6242 54.799 52.852Z" fill="#155B74"/>
<path d="M60.1841 60.1146C62.2031 58.8581 63.0151 56.5144 61.9978 54.8799C60.9806 53.2454 58.5192 52.939 56.5003 54.1956C54.4814 55.4521 53.6694 57.7957 54.6866 59.4302C55.7039 61.0647 58.1652 61.3711 60.1841 60.1146Z" fill="#CDEFF9"/>
<path d="M58.9429 58.1225C60.6465 57.0622 61.4933 55.3444 60.8343 54.2856C60.1754 53.2268 58.2601 53.228 56.5565 54.2882C54.853 55.3485 54.0061 57.0663 54.6651 58.1251C55.3241 59.1839 57.2393 59.1828 58.9429 58.1225Z" fill="#155B74"/>
</svg>
