<svg width="56" height="60" viewBox="0 0 56 60" fill="none" xmlns="http://www.w3.org/2000/svg">
<path d="M11.0459 13.8259H20.458V17.3416H11.0459V13.8259Z" fill="#155B74"/>
<path d="M11.0459 20.9749H29.7465V24.4904H11.0459V20.9749Z" fill="#155B74"/>
<path d="M11.0459 28.1235H29.7465V31.6391H11.0459V28.1235Z" fill="#155B74"/>
<path d="M11.0459 35.2725H29.7465V38.788H11.0459V35.2725Z" fill="#155B74"/>
<path d="M55.1585 13.685C55.1585 6.13903 49.0196 0 41.4737 0C37.6825 0 34.2468 1.55002 31.7661 4.04925H0.841064L0.998211 47.7769C0.998211 54.5167 6.48135 60 13.2211 60H43.4638V40.6444L48.3403 43.4177V25.5187C52.4141 23.1455 55.1585 18.73 55.1585 13.685V13.685ZM4.64598 49.2744C5.52499 49.7072 6.50045 49.9371 7.5154 49.9371H11.2945V53.3751C11.2945 54.4649 11.561 55.4931 12.0298 56.401C8.28437 55.8858 5.29273 52.9809 4.64598 49.2744V49.2744ZM17.9268 56.4844C16.2083 56.4844 14.8101 55.0895 14.8101 53.375V46.4214H7.5154C6.71092 46.4214 5.96257 46.1116 5.40804 45.5492C4.81906 44.9517 4.50149 44.1389 4.51403 43.2604L4.3693 7.56483H29.2364C28.3111 9.40758 27.7892 11.4863 27.7892 13.685C27.7892 18.9193 30.7436 23.4759 35.0718 25.777V43.417L39.9483 40.6451V56.4844H17.9268ZM44.8248 37.374L41.7075 35.6013L38.5873 37.3749V27.0627C39.5182 27.2635 40.4837 27.3701 41.4738 27.3701C42.6296 27.3701 43.752 27.2255 44.8249 26.9544V37.374H44.8248ZM41.4737 23.8544C35.8665 23.8544 31.3045 19.2923 31.3045 13.685C31.3045 8.07764 35.8665 3.51558 41.4737 3.51558C47.0809 3.51558 51.6429 8.07752 51.6429 13.685C51.6429 19.2925 47.0811 23.8544 41.4737 23.8544Z" fill="#155B74"/>
<path d="M41.4734 7.01611C37.7962 7.01611 34.8047 10.0078 34.8047 13.6851C34.8047 17.3624 37.7963 20.354 41.4734 20.354C45.1506 20.354 48.1421 17.3624 48.1421 13.6851C48.1421 10.0078 45.1506 7.01611 41.4734 7.01611ZM41.4734 16.8383C39.7347 16.8383 38.3202 15.4238 38.3202 13.6849C38.3202 11.9461 39.7347 10.5316 41.4734 10.5316C43.2121 10.5316 44.6266 11.9461 44.6266 13.6849C44.6266 15.4238 43.2122 16.8383 41.4734 16.8383Z" fill="#155B74"/>
</svg>
