<svg width="15" height="15" viewBox="0 0 15 15" fill="none" xmlns="http://www.w3.org/2000/svg">
<path d="M1.69187 15H7.19438C7.45312 15 7.66313 14.79 7.66313 14.5312C7.66313 14.4312 7.65688 10.2563 7.65625 10.1562C7.65625 9.8975 7.44625 9.6875 7.1875 9.6875H5.78125V8.125H7.1875C7.44625 8.125 7.65625 7.915 7.65625 7.65625V5.89562C7.65625 4.36812 8.89937 3.125 10.4269 3.125H11.7188V4.6875H10.9375C10.3344 4.6875 9.84375 5.17812 9.84375 5.78125V7.65625C9.84375 7.915 10.0538 8.125 10.3125 8.125H12.2125L11.8219 9.6875H10.3125C10.0538 9.6875 9.84375 9.8975 9.84375 10.1562V14.5312C9.84375 14.79 10.0538 15 10.3125 15H13.3081C14.2412 15 15 14.2412 15 13.3081V1.69187C15 0.75875 14.2412 0 13.3081 0H1.69187C0.75875 0 0 0.75875 0 1.69187V13.3088C0 14.2413 0.75875 15 1.69187 15ZM0.9375 1.69187C0.9375 1.27562 1.27562 0.9375 1.69187 0.9375H13.3088C13.725 0.9375 14.0631 1.27562 14.0631 1.69187V13.3088C14.0631 13.725 13.725 14.0631 13.3088 14.0631H10.7812V10.625H12.1875C12.4025 10.625 12.59 10.4787 12.6425 10.27L13.2675 7.77C13.3413 7.47438 13.1181 7.1875 12.8125 7.1875H10.7812V5.78125C10.7812 5.69625 10.8525 5.625 10.9375 5.625H12.1875C12.4462 5.625 12.6562 5.415 12.6562 5.15625V2.65625C12.6562 2.3975 12.4462 2.1875 12.1875 2.1875H10.4269C8.3825 2.1875 6.71875 3.85125 6.71875 5.89562V7.1875H5.3125C5.05375 7.1875 4.84375 7.3975 4.84375 7.65625V10.1562C4.84375 10.415 5.05375 10.625 5.3125 10.625H6.71875V14.0625H1.69187C1.27562 14.0625 0.9375 13.7244 0.9375 13.3081V1.69187Z" fill="white"/>
</svg>
