<svg width="50" height="56" viewBox="0 0 50 56" fill="none" xmlns="http://www.w3.org/2000/svg">
<path d="M0.5 31C0.5 17.469 11.469 6.5 25 6.5C38.531 6.5 49.5 17.469 49.5 31C49.5 44.531 38.531 55.5 25 55.5C11.469 55.5 0.5 44.531 0.5 31Z" stroke="#E0E0E0"/>
<path fill-rule="evenodd" clip-rule="evenodd" d="M21.1382 24.2323C18.5681 25.1033 17.4217 28.0568 18.2834 30.8744C18.7206 32.2011 19.4317 33.3936 20.366 34.372C21.6477 35.6823 23.0558 36.8354 24.5694 37.8151L24.7413 37.9235C24.9059 38.0272 25.1119 38.0254 25.2748 37.9188L25.4353 37.8138C26.9468 36.8354 28.3549 35.6823 29.6322 34.3765C30.5709 33.3936 31.282 32.2011 31.7156 30.8859C32.5804 28.0585 31.4293 25.1036 28.8584 24.2324L28.6724 24.1741C27.4937 23.8328 26.2411 24.001 25.1852 24.6303L24.9975 24.7474L24.8131 24.6309C23.6994 23.9657 22.3683 23.8158 21.1382 24.2323ZM24.5628 25.7347L24.7005 25.8387C24.882 25.9756 25.127 25.9728 25.3057 25.832C26.2367 25.0983 27.4416 24.8848 28.5454 25.2576C30.5373 25.9326 31.4438 28.2597 30.745 30.5446C30.366 31.6939 29.7386 32.746 28.9147 33.6088L28.545 33.9784C27.5492 34.9525 26.4723 35.8344 25.3289 36.6115L25.0014 36.8283L25.1013 36.8946C23.6569 35.9596 22.3081 34.8551 21.0846 33.6043C20.265 32.746 19.6376 31.6939 19.255 30.5331C18.5592 28.2575 19.4617 25.9321 21.4526 25.2574C22.5038 24.9014 23.6499 25.0779 24.5628 25.7347ZM27.7081 26.9352C27.4388 26.8447 27.1507 27.001 27.0647 27.2842C26.9786 27.5675 27.1272 27.8705 27.3966 27.961C27.926 28.1389 28.3034 28.6404 28.3506 29.2321C28.3743 29.5284 28.6219 29.7484 28.9037 29.7235C29.1854 29.6986 29.3947 29.4382 29.371 29.1418C29.2891 28.1177 28.6332 27.2459 27.7081 26.9352Z" fill="#155B74"/>
<path d="M32 9C32 4.02944 36.0294 0 41 0C45.9706 0 50 4.02944 50 9C50 13.9706 45.9706 18 41 18C36.0294 18 32 13.9706 32 9Z" fill="#155B74"/>
<path d="M43.0255 6.84C43.0255 7.08 42.9755 7.31333 42.8755 7.54C42.7821 7.76 42.6555 7.98 42.4955 8.2C42.3355 8.41333 42.1555 8.62667 41.9555 8.84C41.7555 9.04667 41.5555 9.25 41.3555 9.45C41.2421 9.56333 41.1088 9.69667 40.9555 9.85C40.8088 10.0033 40.6688 10.1633 40.5355 10.33C40.4021 10.4967 40.2888 10.6567 40.1955 10.81C40.1088 10.9633 40.0655 11.0967 40.0655 11.21H43.2555V12H39.0555C39.0488 11.96 39.0455 11.92 39.0455 11.88C39.0455 11.84 39.0455 11.8033 39.0455 11.77C39.0455 11.4567 39.0955 11.1667 39.1955 10.9C39.3021 10.6267 39.4388 10.37 39.6055 10.13C39.7721 9.89 39.9588 9.66333 40.1655 9.45C40.3721 9.23667 40.5755 9.03 40.7755 8.83C40.9421 8.67 41.0988 8.51333 41.2455 8.36C41.3988 8.2 41.5321 8.04333 41.6455 7.89C41.7655 7.73 41.8588 7.56667 41.9255 7.4C41.9988 7.23333 42.0355 7.05667 42.0355 6.87C42.0355 6.67 42.0021 6.5 41.9355 6.36C41.8755 6.22 41.7921 6.10333 41.6855 6.01C41.5788 5.91667 41.4521 5.85 41.3055 5.81C41.1655 5.76333 41.0155 5.74 40.8555 5.74C40.6621 5.74 40.4855 5.76667 40.3255 5.82C40.1655 5.87333 40.0221 5.93667 39.8955 6.01C39.7688 6.07667 39.6621 6.15 39.5755 6.23C39.4888 6.30333 39.4221 6.36 39.3755 6.4L38.9155 5.74C38.9755 5.67333 39.0655 5.59333 39.1855 5.5C39.3055 5.4 39.4488 5.30667 39.6155 5.22C39.7821 5.13333 39.9688 5.06 40.1755 5C40.3821 4.94 40.6055 4.91 40.8455 4.91C41.5721 4.91 42.1155 5.08 42.4755 5.42C42.8421 5.75333 43.0255 6.22667 43.0255 6.84Z" fill="white"/>
</svg>
