<svg width="100" height="100" viewBox="0 0 100 100" fill="none" xmlns="http://www.w3.org/2000/svg">
<path d="M52.8463 57.7266C52.8463 58.3126 52.8482 58.8985 52.8463 59.4843C52.8449 59.7564 52.8362 60.0285 52.8274 60.3006C52.8222 60.4599 52.8898 60.5633 53.0093 60.565C53.1483 60.5672 53.2243 60.4801 53.2269 60.3159C53.2176 60.2234 53.2209 60.1301 53.2368 60.0386C53.2751 59.9095 53.3342 59.7876 53.4119 59.6776C53.4892 59.5732 53.5914 59.5804 53.6869 59.6879C53.9406 59.9738 54.203 60.2518 54.4578 60.5368C54.5469 60.6362 54.6288 60.6854 54.7503 60.5845C54.8768 60.4792 54.8311 60.3792 54.7479 60.2859C54.5209 60.0307 54.2921 59.7768 54.057 59.5294C53.8725 59.3355 53.8554 59.2569 54.0364 59.0612C54.2064 58.8804 54.3859 58.7089 54.5743 58.5474C54.765 58.3813 54.7693 58.3102 54.5743 58.1652C54.0599 57.7839 53.546 57.4017 53.0328 57.0187C52.9146 56.9311 52.8592 56.9482 52.8495 57.1014C52.8364 57.3089 52.8463 57.5173 52.8463 57.7266ZM53.2865 59.242L53.225 59.2236C53.225 59.0467 53.225 58.8699 53.225 58.693C53.225 58.4084 53.2195 58.1239 53.2226 57.8393C53.2226 57.7542 53.2536 57.6771 53.3602 57.748C53.5914 57.9013 53.8199 58.0586 54.0496 58.2152C54.074 58.2259 54.0951 58.2429 54.1108 58.2644C54.1266 58.2859 54.1364 58.3112 54.1392 58.3377C54.1421 58.3642 54.1379 58.391 54.1271 58.4153C54.1164 58.4397 54.0993 58.4608 54.0778 58.4765C54.0024 58.5562 53.9249 58.6339 53.8453 58.7096C53.6599 58.888 53.4728 59.0647 53.2867 59.242H53.2865Z" fill="white"/>
<path d="M56.7705 64.447C56.7551 64.3518 56.7651 64.2543 56.7995 64.1641C56.8338 64.074 56.8913 63.9945 56.9662 63.9337C56.9824 63.9152 57.0026 63.9007 57.0252 63.8911C57.0479 63.8816 57.0724 63.8774 57.0969 63.8787C57.1215 63.8801 57.1454 63.8871 57.1668 63.8991C57.1883 63.911 57.2067 63.9278 57.2208 63.948C57.4834 64.2413 57.7529 64.5287 58.0171 64.8209C58.1036 64.9168 58.1872 64.9534 58.2973 64.8566C58.3198 64.84 58.3382 64.8184 58.351 64.7935C58.3638 64.7687 58.3707 64.7412 58.3711 64.7132C58.3716 64.6852 58.3656 64.6576 58.3537 64.6323C58.3417 64.607 58.3241 64.5848 58.3022 64.5674C58.0762 64.3111 57.8473 64.0572 57.6126 63.8092C57.4134 63.5988 57.3987 63.5296 57.5968 63.318C57.7661 63.1372 57.9521 62.9715 58.1378 62.8071C58.3085 62.6556 58.3096 62.5768 58.1323 62.4457C57.617 62.0651 57.1026 61.6831 56.589 61.2997C56.4596 61.2032 56.4016 61.2176 56.3957 61.3763C56.3817 61.7579 56.381 62.1401 56.3793 62.5221C56.3778 62.8414 56.3832 63.1608 56.3835 63.4802C56.3835 63.7518 56.3806 64.0235 56.3793 64.2951C56.3793 64.3827 56.385 64.4689 56.3793 64.555C56.3664 64.7261 56.4316 64.8349 56.557 64.8376C56.6963 64.8404 56.7692 64.755 56.7714 64.5867C56.7709 64.5458 56.7705 64.5051 56.7705 64.447ZM56.8278 63.5213C56.8027 63.4898 56.7777 63.4732 56.7777 63.4557C56.7735 62.9984 56.7687 62.5409 56.7724 62.0836C56.7724 61.9945 56.8289 61.9643 56.9141 62.023C57.1369 62.1762 57.3622 62.3261 57.5863 62.4776C57.6119 62.489 57.6341 62.5068 57.6508 62.5293C57.6675 62.5518 57.6782 62.5782 57.6817 62.6059C57.6852 62.6337 57.6816 62.6619 57.671 62.6879C57.6605 62.7138 57.6435 62.7366 57.6216 62.7541C57.5487 62.8353 57.4683 62.9104 57.3902 62.9859C57.2065 63.1636 57.0196 63.339 56.8278 63.5213Z" fill="white"/>
<path d="M60.2742 58.8103C60.2636 58.75 60.2563 58.6892 60.2523 58.6282C60.2523 58.228 60.2554 57.8279 60.2552 57.4277C60.2585 57.403 60.2564 57.3778 60.2489 57.3541C60.2414 57.3303 60.2287 57.3084 60.2118 57.2901C60.1949 57.2718 60.1741 57.2574 60.151 57.2481C60.1279 57.2387 60.103 57.2346 60.0781 57.236C59.9415 57.2307 59.8776 57.2992 59.8778 57.4371C59.8778 58.0577 59.8791 58.6785 59.8763 59.2991C59.8746 59.6293 59.8688 59.9595 59.8587 60.2896C59.8531 60.4704 59.9178 60.5669 60.0632 60.5676C60.1989 60.5676 60.2508 60.4886 60.2466 60.2955C60.2342 60.0929 60.2337 59.8898 60.2451 59.6872C60.2593 59.5664 60.3046 59.4514 60.3764 59.3534C60.4489 59.2551 60.5553 59.3006 60.6284 59.3805C60.909 59.687 61.1855 59.9987 61.4657 60.306C61.5614 60.4216 61.668 60.5277 61.784 60.6227C61.8186 60.6414 61.8573 60.651 61.8965 60.6507C61.9358 60.6504 61.9743 60.6402 62.0086 60.621C62.0305 60.6037 62.0485 60.5818 62.0612 60.557C62.0739 60.5321 62.0811 60.5047 62.0822 60.4768C62.0834 60.4489 62.0785 60.4211 62.0679 60.3952C62.0573 60.3694 62.0413 60.3461 62.0209 60.327C61.682 59.9623 61.3396 59.6005 60.9997 59.2367C60.9445 59.1776 60.8696 59.1216 60.8478 59.0502C60.8136 58.9637 60.8151 58.8672 60.8519 58.7818C61.0927 58.4638 61.3554 58.1615 61.608 57.8526C61.7216 57.7138 61.8249 57.5654 61.9464 57.4343C61.9695 57.4162 61.9879 57.3929 62.0003 57.3664C62.0127 57.3398 62.0187 57.3108 62.0178 57.2815C62.0169 57.2522 62.0091 57.2235 61.9952 57.1978C61.9812 57.1721 61.9613 57.15 61.9372 57.1333C61.8348 57.0387 61.7313 57.0812 61.6527 57.1747C61.4738 57.3872 61.3013 57.6052 61.1255 57.8206C60.8731 58.1297 60.6202 58.4383 60.3668 58.7464C60.3383 58.7709 60.3073 58.7923 60.2742 58.8103Z" fill="white"/>
<path d="M52.8139 61.641C52.8139 62.4376 52.8139 63.2341 52.8139 64.0305C52.8139 64.2513 52.8053 64.4724 52.8086 64.6933C52.8071 64.7167 52.8108 64.7401 52.8195 64.7619C52.8282 64.7836 52.8416 64.8032 52.8588 64.8191C52.876 64.835 52.8966 64.8469 52.9189 64.8538C52.9413 64.8608 52.9649 64.8627 52.9881 64.8594C53.1039 64.8594 53.1783 64.8179 53.1823 64.6918C53.1757 64.5412 53.1815 64.3904 53.1998 64.2408C53.2195 64.119 53.2765 64.0063 53.3629 63.9182C53.7689 63.5758 54.1897 63.2514 54.6063 62.9218C54.7691 62.793 54.7801 62.6996 54.6393 62.5895C54.1077 62.1734 53.5757 61.7575 53.0435 61.3418C53.0161 61.3199 52.9892 61.298 52.9599 61.2798C52.8633 61.2185 52.8066 61.236 52.8082 61.3615C52.8082 61.4545 52.8082 61.5475 52.8082 61.6406L52.8139 61.641ZM53.1794 62.5512H53.1838C53.1838 62.4115 53.1799 62.2718 53.1851 62.1324C53.1889 62.0343 53.2508 62.0057 53.3246 62.0615C53.5727 62.2512 53.817 62.445 54.0577 62.6429C54.1452 62.7147 54.1514 62.7845 54.0445 62.8648C53.8136 63.038 53.5943 63.2267 53.3677 63.406C53.327 63.4315 53.2836 63.4525 53.2383 63.4684C53.2115 63.4215 53.1924 63.3705 53.1821 63.3175C53.1755 63.0623 53.1794 62.8066 53.1794 62.5512Z" fill="white"/>
<path d="M51.6653 59.8171C51.5701 59.7354 51.4707 59.6582 51.3807 59.5712C51.1307 59.3305 50.8853 59.0851 50.6364 58.8428C50.5027 58.7114 50.5108 58.6239 50.6452 58.4941C50.919 58.2285 51.1854 57.9551 51.4551 57.6841C51.5814 57.5572 51.7021 57.4239 51.8338 57.303C51.9337 57.2115 51.9602 57.1128 51.8647 57.0185C51.8451 56.9987 51.8216 56.9832 51.7956 56.9732C51.7697 56.9632 51.7419 56.9588 51.7141 56.9602C51.6863 56.9617 51.6591 56.9691 51.6344 56.9818C51.6096 56.9946 51.5878 57.0125 51.5705 57.0342C51.4083 57.1912 51.2494 57.3514 51.0889 57.5105C50.79 57.8078 50.4915 58.1054 50.1934 58.4032C50.1412 58.4491 50.094 58.5005 50.0528 58.5564C50.036 58.5744 50.023 58.5956 50.0147 58.6188C50.0063 58.6419 50.0028 58.6665 50.0042 58.6911C50.0057 58.7157 50.0121 58.7397 50.0231 58.7617C50.0342 58.7837 50.0496 58.8032 50.0684 58.8191C50.3405 59.0772 50.6023 59.3462 50.8722 59.6071C51.2216 59.9443 51.5734 60.2789 51.9278 60.611C51.9752 60.6462 52.0266 60.6756 52.081 60.6986C52.1038 60.648 52.1194 60.5945 52.1274 60.5397C52.1287 59.9815 52.1254 59.4233 52.123 58.8651C52.123 58.8301 52.1322 58.7841 52.1143 58.7626C52.0576 58.6943 51.9897 58.6355 51.9262 58.5729C51.868 58.6335 51.7664 58.6893 51.7596 58.7554C51.7362 58.9796 51.7472 59.2074 51.743 59.434C51.7408 59.5568 51.7345 59.6794 51.7299 59.8022L51.6653 59.8171Z" fill="white"/>
<path d="M59.024 60.7722C59.0757 60.7223 59.1602 60.6789 59.1667 60.6255C59.1711 60.5859 59.1668 60.5459 59.1543 60.5081C59.1417 60.4704 59.1212 60.4357 59.0941 60.4066C58.838 60.2096 58.5709 60.0262 58.3036 59.8443C58.1462 59.7372 58.1337 59.6781 58.2883 59.5597C58.4853 59.4093 58.6935 59.2751 58.8931 59.1282C59.1392 58.9472 59.1302 58.7419 58.8741 58.5771C58.6509 58.4335 58.428 58.2894 58.2053 58.145C58.0858 58.067 58.0858 57.9972 58.204 57.909C58.4959 57.6917 58.7878 57.4747 59.0796 57.258C59.1843 57.1803 59.223 57.0903 59.1306 56.9795C59.1164 56.9558 59.0967 56.9356 59.0734 56.9207C59.05 56.9058 59.0234 56.8965 58.9959 56.8936C58.9683 56.8907 58.9404 56.8942 58.9144 56.9038C58.8884 56.9135 58.865 56.9291 58.8461 56.9493C58.4155 57.2794 57.9798 57.603 57.5466 57.9298C57.4304 58.0173 57.4308 58.0869 57.5534 58.1682C57.838 58.3562 58.1226 58.5403 58.4071 58.7266C58.5823 58.8408 58.5823 58.8848 58.4058 59.0092C58.1423 59.1964 57.8796 59.3852 57.6178 59.5757C57.4672 59.6851 57.4667 59.7414 57.6149 59.8445C58.0129 60.1217 58.4119 60.3976 58.8119 60.6719C58.8802 60.7102 58.9511 60.7437 59.024 60.7722Z" fill="white"/>
<path d="M56.7749 60.7726C56.8253 60.7207 56.9036 60.6763 56.9128 60.6205C56.918 60.5831 56.9148 60.545 56.9034 60.5091C56.8921 60.4731 56.8728 60.4401 56.8471 60.4125C56.5845 60.2127 56.3137 60.0259 56.0416 59.8399C55.8993 59.7427 55.8859 59.6722 56.0271 59.5638C56.2241 59.4128 56.4317 59.2777 56.6315 59.1313C56.8857 58.9452 56.8752 58.7417 56.6081 58.57C56.3892 58.4298 56.171 58.2887 55.9536 58.1467C55.8338 58.069 55.8308 57.9961 55.9457 57.9103C56.2376 57.6923 56.5294 57.4752 56.8213 57.2591C56.9281 57.1805 56.9627 57.0885 56.8752 56.9793C56.861 56.9556 56.8416 56.9354 56.8183 56.9205C56.7951 56.9055 56.7686 56.8962 56.7412 56.8932C56.7137 56.8901 56.6859 56.8936 56.6599 56.9031C56.634 56.9127 56.6106 56.9281 56.5917 56.9482C56.1609 57.2788 55.725 57.6025 55.2916 57.9291C55.1758 58.0167 55.1765 58.0874 55.2982 58.1677C55.5828 58.3553 55.8673 58.5398 56.1534 58.7259C56.3301 58.8408 56.3286 58.8824 56.1513 59.0083C55.8874 59.1955 55.6247 59.3846 55.3632 59.5754C55.2148 59.6849 55.215 59.7425 55.3632 59.8458C55.7615 60.123 56.1607 60.399 56.561 60.6736C56.6298 60.7119 56.7012 60.745 56.7749 60.7726Z" fill="white"/>
<path d="M51.0122 64.9504C51.0546 64.9311 51.0943 64.9064 51.1304 64.8771C51.4778 64.5452 51.8243 64.2125 52.1667 63.8754C52.2981 63.7456 52.2915 63.6863 52.1531 63.5639C51.8195 63.2685 51.4855 62.9738 51.151 62.6798C51.0026 62.5495 50.9954 62.4731 51.1363 62.3431C51.3953 62.1036 51.6571 61.8674 51.9178 61.6299C52.0332 61.5249 52.0419 61.418 51.9412 61.3182C51.8366 61.2147 51.7488 61.2611 51.6567 61.3458C51.3099 61.6669 50.9613 61.9861 50.6109 62.3035C50.4343 62.4637 50.4395 62.5493 50.6195 62.7054C50.9557 62.9974 51.2854 63.2964 51.6168 63.5943C51.6394 63.6111 51.6576 63.6332 51.6698 63.6585C51.6821 63.6839 51.688 63.7118 51.6872 63.7399C51.6863 63.7681 51.6787 63.7956 51.665 63.8201C51.6513 63.8447 51.6318 63.8656 51.6083 63.8811C51.397 64.0871 51.179 64.2858 50.9649 64.489C50.9065 64.5362 50.8549 64.5913 50.8117 64.6527C50.7926 64.685 50.783 64.7221 50.7841 64.7597C50.7852 64.7972 50.797 64.8337 50.8179 64.8648C50.8389 64.896 50.8683 64.9206 50.9027 64.9357C50.9371 64.9509 50.975 64.9559 51.0122 64.9504Z" fill="white"/>
<path d="M60.9739 61.4806C60.6805 61.4806 60.3872 61.4852 60.0941 61.4786C59.9586 61.4756 59.9043 61.5377 59.901 61.6638C59.8977 61.7899 59.949 61.8608 60.0843 61.8584C60.2449 61.8562 60.4058 61.8584 60.5658 61.8652C60.6919 61.87 60.7609 61.9208 60.7609 62.0692C60.7609 62.6721 60.7736 63.2749 60.7793 63.8775C60.7815 64.1323 60.7773 64.3871 60.7771 64.6419C60.7771 64.7783 60.8443 64.8494 60.9809 64.8389C61.1251 64.8284 61.147 64.7312 61.147 64.6051C61.147 64.1295 61.156 63.6538 61.1573 63.1781C61.1573 62.8181 61.1497 62.458 61.151 62.0979C61.151 61.9022 61.1919 61.8687 61.3861 61.8691C61.5474 61.8691 61.7087 61.8709 61.8699 61.8691C61.9898 61.8676 62.0888 61.8254 62.103 61.6899C62.1161 61.5572 62.027 61.4771 61.8707 61.4758C61.5717 61.4732 61.2725 61.4758 60.9732 61.4758L60.9739 61.4806Z" fill="white"/>
<path d="M59.2988 64.1112C59.2988 63.4142 59.2988 62.7173 59.2988 62.0205C59.2988 61.9161 59.2837 61.8117 59.2837 61.7073C59.2876 61.6812 59.2853 61.6546 59.277 61.6295C59.2688 61.6045 59.2547 61.5818 59.2361 61.5631C59.2175 61.5445 59.1947 61.5305 59.1697 61.5222C59.1446 61.5139 59.118 61.5116 59.0919 61.5155C58.9542 61.5155 58.9168 61.6085 58.9168 61.7248C58.9168 62.218 58.9197 62.7111 58.9186 63.2043C58.9173 63.6666 58.9113 64.1289 58.9089 64.5912C58.9089 64.7206 58.9466 64.8255 59.0992 64.8279C59.2517 64.8303 59.2946 64.7379 59.2909 64.5998C59.2865 64.4371 59.2909 64.2741 59.2909 64.1112H59.2988Z" fill="white"/>
<path d="M55.6604 63.1817C55.6604 62.7001 55.6587 62.2185 55.6604 61.737C55.6604 61.5947 55.6066 61.5126 55.4601 61.5168C55.3137 61.5209 55.285 61.6262 55.285 61.7459C55.285 62.5292 55.285 63.3124 55.285 64.0956C55.285 64.258 55.283 64.4204 55.2813 64.5829C55.2793 64.749 55.3448 64.8331 55.4783 64.8291C55.6315 64.8247 55.6637 64.7284 55.6626 64.5938C55.6591 64.1234 55.6613 63.6525 55.6613 63.1823L55.6604 63.1817Z" fill="white"/>
<path d="M50.6232 99.9969C63.8431 99.8316 76.4594 94.4375 85.7125 84.9946C94.9655 75.5518 100.102 62.8287 99.9985 49.6086C99.8949 36.3885 94.5596 23.7474 85.1596 14.4507C75.7597 5.154 63.0604 -0.04167 49.8395 0.000251729C22.3092 0.0748959 0.0348058 22.3917 0 49.9746C0.0048159 77.6229 22.429 100.306 50.6232 99.9969ZM50.0078 1.69321C76.5275 1.70174 98.0626 23.0327 98.3122 49.5305C98.3781 55.9077 97.1797 62.2349 94.7862 68.1463C92.3926 74.0578 88.8514 79.4364 84.3671 83.9714C79.8828 88.5064 74.5443 92.1079 68.66 94.5678C62.7757 97.0277 56.4623 98.2973 50.0845 98.3033C23.4926 98.3429 1.99313 76.9713 1.70658 50.5435C1.41347 23.597 23.1222 1.71181 50.0078 1.69321Z" fill="white"/>
<path d="M3.82348 50.9585C4.02881 53.3182 4.20875 55.6825 4.50625 58.0315C4.70229 59.3106 4.98132 60.5755 5.34159 61.8184C5.52787 62.5283 5.96546 62.7063 6.66245 62.5112C8.17136 62.089 9.68334 61.6748 11.1898 61.2464C11.9041 61.0433 12.6127 60.8154 13.2828 60.6116C14.1985 63.4814 15.2801 66.2049 16.7743 68.7776L14.8215 69.9231C14.5229 69.403 14.1866 68.8958 13.9283 68.351C13.3686 67.1665 12.8437 65.965 12.3159 64.7659C11.9928 64.0312 11.6344 63.8631 10.8875 64.1273C9.78775 64.5164 8.68747 64.9044 7.58667 65.2914C6.84524 65.5517 6.59853 66.0674 6.92361 66.7981C7.57178 68.256 8.22237 69.7141 8.91805 71.1498C9.36321 72.1049 9.86896 73.0306 10.4322 73.9213C11.349 75.3233 12.3498 76.6708 13.3198 78.0381C13.6996 78.5735 14.1912 78.6431 14.714 78.2351C15.3809 77.7154 16.0434 77.1901 16.7014 76.659C16.9617 76.4489 17.1953 76.2059 17.4558 75.9958C17.9155 75.6258 18.3839 75.2692 18.8497 74.9081C19.2963 74.5615 19.744 74.2163 20.2085 73.8573C22.0603 76.1805 24.1798 78.277 26.5232 80.1031L25.082 81.9971C23.6138 80.6257 22.2088 79.3237 20.8166 78.0079C20.3238 77.5425 19.8436 77.4981 19.3513 77.9549C18.4638 78.7786 17.5904 79.6185 16.7082 80.4475C16.1668 80.9566 16.1031 81.3546 16.6117 81.8896C17.5335 82.8595 18.4645 83.8268 19.4611 84.7177C20.3149 85.4802 21.2496 86.1541 22.1756 86.8308C23.2701 87.6313 24.3911 88.3965 25.5062 89.1692C25.926 89.4602 26.3494 89.7498 26.7929 90.0021C27.3791 90.3355 27.9141 90.1643 28.2414 89.5895C28.5417 89.0615 28.8635 88.5456 29.1551 88.0135C29.6533 87.1031 30.1325 86.1822 30.6255 85.2689C30.9488 84.67 31.2822 84.0766 31.6215 83.4621C34.2527 84.8764 36.9654 86.0611 39.9007 86.8082C39.6973 87.5212 39.4968 88.224 39.2783 88.9895C38.3421 88.7196 37.456 88.5106 36.6038 88.2063C35.6257 87.8572 34.6813 87.4148 33.7153 87.0308C33.1519 86.8067 32.7699 86.9474 32.5186 87.473C31.9464 88.6688 31.3854 89.8701 30.8356 91.0769C30.669 91.4436 30.6892 91.8332 31.0874 92.0401C31.8632 92.4448 32.6285 92.9115 33.455 93.1692C35.9869 93.9581 38.5348 94.6943 41.0988 95.3778C42.0039 95.6197 42.9627 95.6698 43.9007 95.7775C44.5933 95.8572 45.0502 95.5681 45.1027 95.0515C45.256 93.5542 45.3952 92.0558 45.5436 90.5584C45.6281 89.706 45.72 88.854 45.8115 87.9725C48.78 88.2995 51.7765 88.2781 54.74 87.9086C54.8381 88.6623 54.9322 89.3842 55.0298 90.1333C54.7987 90.1576 54.6257 90.1854 54.4519 90.1928C52.7077 90.267 50.9632 90.3364 49.2201 90.4104C48.5774 90.4375 48.2247 90.7946 48.1954 91.4361C48.1394 92.669 48.0835 93.9021 48.0277 95.1355C47.995 95.3516 48.0451 95.5721 48.1679 95.7529C48.2907 95.9337 48.4772 96.0615 48.6901 96.1107C48.9063 96.1673 49.1291 96.1943 49.3525 96.191C51.9016 96.2532 54.4507 96.0727 56.9656 95.6521C58.6334 95.3676 60.2903 95.0118 61.9396 94.6334C62.6731 94.465 62.8787 93.9942 62.6764 93.2981C62.0646 91.1951 61.4549 89.0915 60.8472 86.9873C60.8174 86.8846 60.7975 86.7793 60.7759 86.6878C63.5973 85.7431 66.3345 84.6958 68.895 83.1622L70.0664 85.1503C69.1608 85.6279 68.2987 86.1134 67.4087 86.5425C66.5186 86.9715 65.5898 87.3261 64.6925 87.7438C64.1671 87.9883 64.0279 88.3917 64.2203 88.9359C64.6304 90.0956 65.0436 91.2541 65.46 92.4113C65.7038 93.0871 66.2544 93.3401 66.9047 93.0446C68.4594 92.3374 70.0086 91.6179 71.5523 90.8861C71.9404 90.702 72.2977 90.4531 72.6687 90.2313C73.8162 89.5433 74.9799 88.8807 76.1035 88.156C76.854 87.6718 77.5483 87.1007 78.2644 86.5637C78.3602 86.4915 78.4408 86.4011 78.5014 86.2975C78.562 86.194 78.6014 86.0795 78.6174 85.9605C78.6334 85.8416 78.6256 85.7207 78.5945 85.6049C78.5634 85.489 78.5096 85.3805 78.4362 85.2856C78.0188 84.7423 77.5937 84.2049 77.1609 83.6736C76.3017 82.6229 75.4315 81.5825 74.5714 80.5342C74.4004 80.3442 74.2514 80.1354 74.1275 79.9118C74.1065 79.8447 74.1022 79.7734 74.1151 79.7042C74.1279 79.635 74.1574 79.57 74.201 79.5148C74.8291 78.9257 75.5022 78.3837 76.1138 77.7787C77.1668 76.7374 78.1934 75.6698 79.2131 74.595C79.5607 74.2286 79.8514 73.807 80.1896 73.385L81.998 74.7483C81.6427 75.1981 81.3413 75.6311 80.9875 76.0179C80.0062 77.094 78.9996 78.1471 78.0104 79.2171C77.5921 79.6702 77.589 80.0458 78.0006 80.4867C78.8616 81.406 79.729 82.3194 80.6029 83.2266C81.1064 83.7474 81.4976 83.7623 82.0488 83.2601C82.5304 82.8223 82.9901 82.3558 83.4327 81.878C84.2888 80.9542 85.187 80.0611 85.9577 79.0684C87.0039 77.722 87.9537 76.3002 88.9307 74.9008C89.3147 74.3507 89.6815 73.786 90.0178 73.2057C90.4214 72.5094 90.2489 71.958 89.5622 71.5749C87.9577 70.6811 86.3575 69.7799 84.7483 68.8941C84.3628 68.6819 83.9484 68.5219 83.5211 68.3269C84.9335 65.6345 86.1329 62.9282 86.8454 59.9764L89.0522 60.6099C88.7457 61.6267 88.4859 62.5997 88.1536 63.547C87.8471 64.4213 87.4542 65.2652 87.1131 66.1276C86.8704 66.7405 87.0129 67.1212 87.586 67.3898C88.7149 67.9189 89.8641 68.4063 90.9755 68.9687C91.6136 69.2916 92.0919 69.0563 92.4043 68.4011C92.745 67.7304 93.037 67.036 93.2781 66.3233C93.9762 64.0632 94.6758 61.8011 95.2702 59.5128C95.5663 58.3745 95.6581 57.1778 95.799 56.0025C95.9017 55.1468 95.5801 54.7879 94.7441 54.7169C93.547 54.6151 92.3487 54.5287 91.1528 54.4138C90.1075 54.3131 89.0653 54.1815 88.0625 54.0683C88.1142 52.5759 88.2101 51.1531 88.2 49.7311C88.1897 48.2973 88.0741 46.8635 88.003 45.3901L90.1434 45.1235C90.1753 45.2746 90.199 45.4274 90.2146 45.581C90.2872 47.2446 90.3612 48.9083 90.4214 50.5719C90.4451 51.22 90.7594 51.6276 91.3257 51.6556C92.5903 51.7183 93.855 51.7745 95.12 51.8244C95.7605 51.8489 96.1322 51.5077 96.1948 50.8641C96.2088 50.721 96.2064 50.576 96.2088 50.4318C96.266 47.0542 95.8529 43.7195 95.2621 40.4045C95.1119 39.6354 94.9112 38.8769 94.6614 38.1341C94.4782 37.5582 94.0721 37.2942 93.6293 37.4168C91.8881 37.8984 90.1515 38.3966 88.4141 38.8906C87.8386 39.0541 87.2653 39.2242 86.7257 39.3812C85.8766 36.5391 84.7084 33.8024 83.2433 31.2233L85.206 30.0809C85.5633 30.7157 85.9525 31.3231 86.259 31.9702C86.7716 33.0531 87.2335 34.1592 87.7125 35.2582C88.0229 35.9703 88.3854 36.1393 89.1065 35.8869C90.2227 35.4961 91.3381 35.1033 92.4524 34.7084C93.1444 34.4643 93.4005 33.9602 93.1238 33.277C92.6805 32.1825 92.2434 31.0799 91.7296 30.0172C91.1971 28.8733 90.5978 27.7618 89.9346 26.6884C88.8867 25.048 87.7455 23.4671 86.6309 21.8696C86.5651 21.7733 86.4799 21.6918 86.3809 21.6302C86.2819 21.5687 86.1712 21.5284 86.0557 21.5119C85.9403 21.4954 85.8227 21.5031 85.7104 21.5346C85.5981 21.566 85.4936 21.6205 85.4035 21.6945C84.9968 21.9996 84.5962 22.3128 84.2019 22.634C82.9866 23.619 81.7782 24.6143 80.56 25.5967C80.3273 25.7843 80.0624 25.9323 79.7938 26.1109C77.9436 23.8038 75.8305 21.7205 73.4973 19.9032C73.9694 19.2794 74.4066 18.7017 74.8529 18.1124C75.2069 18.3427 75.5476 18.5927 75.8735 18.8613C77.0133 19.9146 78.1365 20.9846 79.2612 22.0552C79.3468 22.1496 79.4507 22.2256 79.5665 22.2787C79.6823 22.3317 79.8077 22.3607 79.9351 22.3639C80.0625 22.3671 80.1891 22.3443 80.3075 22.2971C80.4258 22.2499 80.5333 22.1791 80.6235 22.0891C81.5106 21.263 82.3935 20.432 83.2722 19.5961C83.8812 19.0143 83.9009 18.6128 83.3232 18.0043C82.7869 17.4393 82.2171 16.9061 81.6631 16.3577C81.2999 15.9983 80.9654 15.6036 80.571 15.2825C79.6953 14.5685 78.8026 13.8704 77.8896 13.203C76.7686 12.3841 75.622 11.6002 74.4812 10.8085C74.0872 10.5351 73.6903 10.2625 73.274 10.0263C72.628 9.66012 72.1175 9.81597 71.7607 10.458C71.0944 11.6577 70.4295 12.8585 69.7663 14.0604C69.3131 14.8793 68.8602 15.698 68.3992 16.5315C65.7553 15.1277 63.0501 13.9238 60.11 13.1962C60.3238 12.4635 60.5316 11.7515 60.7448 11.019C61.667 11.28 62.5398 11.4787 63.3793 11.7769C64.3276 12.1137 65.2439 12.5395 66.1745 12.9261C66.8791 13.2187 67.2434 13.0837 67.5685 12.3937C68.0656 11.3384 68.5559 10.28 69.0476 9.22232C69.4263 8.4078 69.282 7.99846 68.4533 7.62437C67.7787 7.29057 67.0842 6.99874 66.3737 6.75053C64.1141 6.05006 61.852 5.35155 59.5642 4.75374C58.4406 4.4602 57.2609 4.37177 56.102 4.22664C55.4285 4.14258 54.9707 4.43087 54.9177 4.91507C54.7736 6.23605 54.6367 7.5579 54.5071 8.88062C54.4068 9.91185 54.3241 10.9446 54.2293 12.0279C51.2515 11.7016 48.2459 11.7228 45.273 12.0912C45.175 11.334 45.0817 10.6149 44.9861 9.87792C45.1548 9.85318 45.2477 9.8313 45.3413 9.82714C47.1173 9.74658 48.8931 9.66034 50.6695 9.59291C51.4398 9.5638 51.7918 9.24815 51.8253 8.49668C51.8802 7.26406 51.9317 6.03123 51.9963 4.79927C52.0174 4.61392 51.9734 4.42697 51.8716 4.2706C51.7698 4.11423 51.6168 3.99821 51.4387 3.94251C51.1675 3.85064 50.8827 3.80491 50.5964 3.80723C48.0471 3.75252 45.4984 3.93728 42.9837 4.35907C41.3483 4.64145 39.7221 4.98315 38.1022 5.35002C37.3491 5.52076 37.1375 5.99117 37.3487 6.71704C37.9516 8.78927 38.5533 10.8615 39.154 12.9337C39.1923 13.0664 39.2153 13.2036 39.2394 13.3109C36.4135 14.2587 33.6792 15.314 31.1206 16.8386C30.7323 16.1778 30.3562 15.5373 29.9469 14.8408C30.8709 14.364 31.7542 13.8835 32.6595 13.4486C33.5522 13.0195 34.4765 12.6546 35.3689 12.226C35.8711 11.9852 35.9882 11.5925 35.7967 11.0565C35.3831 9.89835 34.9672 8.74097 34.5489 7.58431C34.3118 6.93068 33.7698 6.66253 33.1497 6.9379C31.7341 7.56541 30.3267 8.21036 28.9274 8.87274C28.3802 9.13279 27.8638 9.45873 27.3421 9.77022C26.2058 10.4473 25.0579 11.1075 23.9491 11.8261C23.1862 12.3197 22.4776 12.8974 21.7487 13.4427C21.6538 13.5158 21.5742 13.607 21.5145 13.711C21.4548 13.8149 21.4161 13.9296 21.4008 14.0485C21.3854 14.1674 21.3937 14.2881 21.425 14.4038C21.4563 14.5195 21.5102 14.6279 21.5834 14.7228C21.9304 15.1779 22.2883 15.6246 22.6508 16.0677C23.6516 17.2913 24.6546 18.5131 25.6599 19.7329C25.7634 19.8323 25.844 19.9531 25.8958 20.0869C25.912 20.1555 25.9134 20.2268 25.8997 20.296C25.8861 20.3652 25.8578 20.4307 25.8168 20.4881C25.1888 21.0769 24.5156 21.6192 23.9038 22.2238C22.8518 23.2637 21.8242 24.3298 20.8065 25.403C20.4596 25.769 20.1702 26.1911 19.8293 26.6175L18.0256 25.2561C18.3552 24.8269 18.6289 24.4116 18.9603 24.0494C19.9543 22.963 20.9729 21.8991 21.9777 20.8226C22.4326 20.3353 22.4396 19.9724 21.9829 19.4832C21.1344 18.5741 20.2785 17.6721 19.415 16.7771C18.9169 16.2612 18.5393 16.233 18.0063 16.7115C17.4982 17.1683 17.0313 17.6709 16.5488 18.1562C16.1202 18.5868 15.6612 18.993 15.2763 19.4602C14.5576 20.3327 13.864 21.2257 13.1954 22.1393C12.3855 23.2469 11.611 24.3803 10.8295 25.5085C10.5386 25.9288 10.2496 26.353 9.99768 26.7976C9.68947 27.3449 9.75339 28.0204 10.1218 28.2412C10.7801 28.6353 11.4463 29.0165 12.1204 29.385C13.0869 29.9134 14.0616 30.4272 15.0349 30.9431C15.509 31.1946 15.9882 31.4367 16.4864 31.6939C15.082 34.3778 13.8736 37.0946 13.1707 40.0282L10.9784 39.3934C11.2555 38.4342 11.4819 37.5028 11.7969 36.6029C12.1191 35.6836 12.5352 34.7972 12.9001 33.8925C13.1554 33.2601 13.0166 32.8963 12.398 32.6041C11.2995 32.0849 10.1986 31.5705 9.09032 31.0731C8.31759 30.7266 7.94129 30.903 7.57769 31.6751C6.43304 34.1049 5.68483 36.6734 5.04103 39.2652C4.65685 40.8123 4.45677 42.4072 4.21642 43.987C4.09055 44.8129 4.45502 45.2183 5.25753 45.2864C6.77344 45.4151 8.29045 45.5359 9.80527 45.6782C10.532 45.7465 11.2551 45.8562 12.014 45.9514C11.7128 48.8305 11.7337 51.7343 12.0764 54.6088L9.86087 54.8756C9.84357 54.7224 9.83044 54.6447 9.82694 54.5666C9.74901 52.8708 9.66473 51.1752 9.59818 49.4787C9.56797 48.7056 9.27836 48.3766 8.49884 48.3372C7.31647 48.277 6.13278 48.2251 4.94778 48.1813C4.22211 48.1535 3.85325 48.4878 3.82086 49.2296C3.78445 49.8053 3.78532 50.3828 3.82348 50.9585ZM5.49 50.0391H7.9286C7.93867 50.1969 7.95049 50.3644 7.9599 50.5323C8.06498 52.3053 8.15188 54.0815 8.28213 55.8535C8.34495 56.7071 8.82195 57.016 9.65663 56.8687C10.7599 56.6739 11.8653 56.4915 12.9728 56.3215C13.6282 56.2199 13.9321 55.8563 13.8226 55.1852C13.4929 53.0317 13.3766 50.851 13.4754 48.6747C13.5126 47.6198 13.6206 46.5658 13.7337 45.5156C13.8184 44.7275 13.5527 44.351 12.7622 44.2363C10.5935 43.9214 8.42522 43.6033 6.25748 43.2819C6.18108 43.2708 6.10666 43.2463 6.03683 43.2294C6.04558 41.3596 7.7005 35.1761 8.74227 33.1494L10.993 34.1226C10.6741 34.9603 10.3208 35.7643 10.0625 36.5961C9.71223 37.7243 9.41343 38.8698 9.13586 40.0184C9.00824 40.5472 9.25997 40.9327 9.79717 41.0678C11.023 41.3758 12.2531 41.6643 13.4896 41.9228C14.0649 42.043 14.3922 41.7759 14.5706 41.1643C14.9152 39.9842 15.1899 38.7783 15.6213 37.6306C16.3584 35.6724 17.1694 33.7406 18.2587 31.9406C18.6746 31.2542 18.5652 30.8967 17.8813 30.4762C16.4146 29.5724 14.95 28.6618 13.4787 27.7638C12.9752 27.4574 12.4531 27.1785 11.8873 26.8576C13.7066 23.9072 15.8485 21.1683 18.2734 18.6914L20.0684 20.3277C19.5662 20.9036 19.1186 21.4202 18.6674 21.9337C18.2038 22.4613 17.7235 22.975 17.2749 23.515C16.8776 23.9935 16.5009 24.4907 16.1388 24.9967C15.7247 25.576 15.8037 25.9599 16.384 26.378C17.3292 27.0566 18.2707 27.7422 19.2214 28.4137C19.8716 28.8734 20.1881 28.7679 20.6927 28.1487C21.5902 27.0478 22.4838 25.9347 23.4809 24.9276C24.6919 23.7046 26.0088 22.5854 27.2789 21.4217C27.4671 21.249 27.6567 21.0772 27.8342 20.8937C27.9888 20.7607 28.0843 20.5718 28.0998 20.3685C28.1152 20.1651 28.0494 19.964 27.9168 19.8091C27.3695 19.0429 26.8251 18.274 26.2667 17.5157C25.622 16.6401 24.9561 15.779 24.3151 14.9003C24.1102 14.6195 23.9555 14.3023 23.7556 13.9645C26.5795 11.9566 29.5362 10.2124 32.7878 8.90798C33.0897 9.65968 33.3843 10.3923 33.6961 11.1677C33.4515 11.2907 33.2145 11.4085 32.9783 11.5288C31.7962 12.1251 30.6141 12.7215 29.432 13.3181C29.0616 13.5048 28.675 13.6655 28.3235 13.8827C27.6887 14.2749 27.6145 14.7326 28.0122 15.3554C28.614 16.2967 29.1954 17.2515 29.7915 18.1971C30.2446 18.9158 30.6903 19.0011 31.4385 18.5627C32.2094 18.0759 33.0059 17.6307 33.8246 17.2292C35.3972 16.5221 36.9965 15.872 38.603 15.2451C39.2089 15.0087 39.87 14.9167 40.4974 14.7311C41.1388 14.5404 41.3382 14.1182 41.1808 13.4766C40.6279 11.2257 40.0885 8.97125 39.5458 6.72535C40.5791 6.17526 47.8077 5.29179 49.8061 5.46976V7.96782C49.4616 7.96782 49.1137 7.95009 48.7683 7.97066C47.234 8.06282 45.6988 8.14381 44.1676 8.27209C43.0995 8.3614 42.8274 8.79897 43.0378 9.84946C43.239 10.8538 43.4073 11.8649 43.5811 12.8744C43.7289 13.7321 44.0073 13.9424 44.8508 13.8157C48.0875 13.3322 51.3762 13.306 54.6203 13.738C55.414 13.8417 55.7804 13.5661 55.8991 12.7724C56.2115 10.6841 56.5236 8.59576 56.8354 6.50733C56.8586 6.35411 56.8973 6.20088 56.9269 6.05597C58.7657 6.06647 65.1531 7.79861 66.9925 8.79613L66.0153 11.0696C65.4628 10.8406 64.9607 10.588 64.4316 10.4219C63.061 9.99065 61.6819 9.5846 60.2991 9.19386C59.6176 9.00145 59.2162 9.24246 59.0432 9.93111C58.747 11.1105 58.4706 12.2952 58.2007 13.4814C58.0846 13.9908 58.3283 14.3868 58.8482 14.554C59.427 14.7388 60.0051 14.9388 60.5977 15.0656C62.2414 15.4171 63.7453 16.1229 65.2417 16.8474C66.2894 17.3548 67.3213 17.8964 68.3591 18.4235C68.8688 18.682 69.2527 18.5767 69.5743 18.0542C70.7221 16.1906 71.8651 14.3242 73.0034 12.455C73.0938 12.3072 73.1904 12.1632 73.3221 11.9577C73.7332 12.2477 74.124 12.5134 74.5042 12.7932C75.9696 13.8721 77.4498 14.932 78.8876 16.0467C79.6292 16.6215 80.3017 17.2876 80.9891 17.9292C81.512 18.4176 81.4901 18.4307 80.9816 18.9243C80.5574 19.3361 80.1618 19.778 79.7919 20.1648C78.6652 19.1703 77.6011 18.2153 76.5177 17.2828C76.0707 16.8982 75.5918 16.5482 75.1097 16.2073C74.5513 15.8133 74.161 15.8851 73.7621 16.4335C73.0672 17.388 72.3761 18.3454 71.6889 19.3056C71.2572 19.9113 71.345 20.2454 71.9093 20.7155C73.001 21.6248 74.1185 22.5136 75.1246 23.5124C76.3336 24.7126 77.4378 26.0188 78.5864 27.2799C78.652 27.3508 78.7041 27.4331 78.7691 27.5029C79.5614 28.3658 79.6734 28.4168 80.6401 27.7448C82.1208 26.716 83.5562 25.6215 85.016 24.5618C85.3494 24.3199 85.7047 24.108 86.1092 23.8436C88.148 26.6469 89.8414 29.6856 91.153 32.8941L88.874 33.8435C88.6875 33.3718 88.5434 32.9158 88.3326 32.4933C87.8399 31.5057 87.3163 30.5333 86.8027 29.5559C86.6026 29.1755 86.4142 28.787 86.1883 28.4221C85.7969 27.7897 85.3345 27.7253 84.7087 28.1287C83.7424 28.7522 82.7561 29.3441 81.7808 29.9537C81.2134 30.3083 81.0959 30.7897 81.4269 31.3837C81.9014 32.2374 82.4426 33.0592 82.8419 33.9448C83.5369 35.4876 84.168 37.0604 84.7783 38.6391C85.0191 39.261 85.125 39.9341 85.3037 40.5807C85.4893 41.2499 85.9028 41.4563 86.5786 41.2917C88.8274 40.7421 91.0801 40.208 93.3134 39.6719C93.8208 40.5875 94.7722 48.0224 94.536 49.9662H92.0472C92.0472 49.5877 92.0661 49.2219 92.0439 48.8599C91.9468 47.2635 91.8496 45.6668 91.7279 44.0722C91.6714 43.3327 91.1635 42.9858 90.4262 43.1125C89.2752 43.3104 88.1235 43.5034 86.9711 43.6915C86.3726 43.7887 86.1241 44.17 86.188 44.8429C86.3264 46.2926 86.537 47.7437 86.5462 49.1955C86.5575 50.9344 86.4177 52.6759 86.2883 54.4129C86.2226 55.3005 86.4415 55.6494 87.3242 55.7773C89.4777 56.0888 91.6307 56.4051 93.7831 56.7262C93.8449 56.7352 93.9051 56.754 93.9999 56.7759C93.6997 60.2927 92.4737 63.5473 91.3336 66.8815L89.0257 65.8761C89.3182 65.0977 89.6321 64.364 89.8694 63.6064C90.2321 62.4484 90.5587 61.278 90.8671 60.104C91.0287 59.4893 90.7666 59.0605 90.1502 58.9077C88.9701 58.6153 87.7847 58.3401 86.595 58.0899C85.9694 57.9586 85.6375 58.1994 85.4545 58.8228C85.1261 59.9405 84.8481 61.0757 84.4596 62.1719C84.0918 63.2095 83.6352 64.2186 83.1702 65.2181C82.6998 66.2299 82.1725 67.2151 81.6672 68.2104C81.4024 68.7325 81.4901 69.1154 82.0021 69.4363C82.6781 69.8587 83.3762 70.2462 84.0544 70.6645C84.8711 71.1693 85.6714 71.7003 86.4888 72.2038C87.0159 72.5284 87.5614 72.8242 88.1321 73.1527C86.2434 76.1249 84.1719 78.8819 81.709 81.3355L79.999 79.7234C81.3279 78.1055 82.6241 76.5535 83.8876 74.9753C84.3122 74.4446 84.203 74.0287 83.6492 73.6319C82.7031 72.9533 81.7611 72.2699 80.8109 71.5977C80.1542 71.1336 79.8378 71.229 79.3346 71.8385C78.3679 73.0069 77.4111 74.1923 76.3478 75.2699C75.1852 76.4484 73.9055 77.5118 72.6799 78.6287C72.4598 78.7873 72.2697 78.984 72.1186 79.2094C71.9924 79.4546 71.9569 79.7365 72.0183 80.0053C72.1564 80.3632 72.3492 80.6974 72.5899 80.996C73.4397 82.1588 74.3072 83.3087 75.1679 84.4636C75.5375 84.9592 75.9061 85.4552 76.3063 85.9937C73.4956 88.0554 70.4464 89.7705 67.2248 91.1017L66.31 88.8008C66.7495 88.6257 67.1764 88.4931 67.5698 88.2939C68.5682 87.7884 69.5513 87.2526 70.541 86.7301C70.9074 86.5368 71.2852 86.3638 71.6403 86.1513C72.3338 85.7354 72.4165 85.2939 71.986 84.6166C71.3774 83.66 70.7868 82.6923 70.1844 81.7318C69.8168 81.1455 69.3252 81.0232 68.7144 81.3666C67.9045 81.8217 67.1298 82.3484 66.2874 82.7282C64.6721 83.4562 63.0288 84.1243 61.3789 84.7711C60.7737 85.0087 60.1126 85.0995 59.4858 85.2864C58.8729 85.4699 58.6812 85.8862 58.8337 86.5123C59.3635 88.6874 59.8812 90.8655 60.402 93.0431C60.4239 93.1333 60.4298 93.2276 60.4422 93.3147C59.1041 93.862 51.6342 94.7947 50.1885 94.4968V92.0723C50.368 92.0631 50.537 92.0565 50.706 92.0449C52.5251 91.9201 54.3471 91.8238 56.1622 91.6555C56.9065 91.5863 57.1593 91.147 57.0269 90.4003C56.82 89.234 56.6035 88.0695 56.3855 86.9052C56.2734 86.3056 56.0029 86.1016 55.3713 86.1644C54.3836 86.2625 53.3996 86.4098 52.4102 86.4803C50.1257 86.641 47.831 86.5794 45.5585 86.2962C45.2014 86.2587 44.8405 86.3125 44.5099 86.4527C44.3318 86.5293 44.1871 86.8421 44.1516 87.068C43.908 88.6174 43.7028 90.1727 43.473 91.7244C43.3635 92.4648 43.2278 93.2013 43.0934 94.001C42.2044 93.862 41.3387 93.7983 40.513 93.5822C38.8585 93.1492 37.2226 92.6429 35.5854 92.1462C34.8368 91.9188 34.1041 91.6397 33.362 91.39C33.1256 91.3103 33.0094 91.1967 33.1293 90.9303C33.4244 90.2766 33.7072 89.6169 34.008 88.9311C34.4458 89.115 34.8455 89.3207 35.2684 89.4538C36.7611 89.9237 38.2586 90.3782 39.761 90.8173C40.3667 90.9938 40.805 90.7361 40.9628 90.1153C41.2693 88.9059 41.5552 87.6908 41.8286 86.4735C41.9433 85.9628 41.6246 85.5671 41.0388 85.3972C39.8886 85.0636 38.7142 84.7924 37.5976 84.3684C35.6259 83.6213 33.6779 82.8076 31.8686 81.7009C31.1491 81.2609 30.7989 81.3579 30.3674 82.0625C29.25 83.8867 28.1339 85.7122 27.0193 87.5391C26.928 87.6882 26.8301 87.8331 26.6975 88.0382C26.3207 87.7742 25.9552 87.5297 25.6029 87.2686C24.0503 86.12 22.4811 84.992 20.9595 83.8043C20.208 83.2176 19.5505 82.5115 18.8425 81.8679C18.5691 81.6195 18.6431 81.4435 18.876 81.2051C19.3445 80.7261 19.7775 80.2124 20.2181 79.7207C21.6517 81.2024 23.2102 82.5578 24.8764 83.7719C25.4495 84.2005 25.8479 84.1234 26.2588 83.5569C26.9426 82.6143 27.6251 81.6708 28.3062 80.7261C28.7659 80.0856 28.6921 79.7693 28.0969 79.2753C26.3895 77.8579 24.6601 76.4627 23.1902 74.7855C22.4332 73.9215 21.6942 73.0415 20.9304 72.1837C20.4998 71.7001 20.1575 71.6802 19.6301 72.0571C18.2528 73.0411 16.8765 74.0266 15.5014 75.0136C14.9885 75.3831 14.4885 75.7705 13.9305 76.189C11.8802 73.3775 10.1794 70.327 8.86551 67.1048L11.1421 66.1539C11.3422 66.6504 11.5022 67.1367 11.7279 67.5903C12.2058 68.5497 12.7171 69.4925 13.2165 70.4412C13.4165 70.8212 13.6039 71.2098 13.8294 71.5749C14.2186 72.2082 14.6862 72.2727 15.3092 71.8695C16.2743 71.245 17.2607 70.6529 18.2362 70.0442C18.8022 69.6908 18.9231 69.2023 18.5912 68.6139C18.1429 67.8193 17.6263 67.0562 17.2539 66.2279C16.5405 64.64 15.8851 63.0245 15.2534 61.4021C15.045 60.7643 14.8697 60.1162 14.728 59.4604C14.5277 58.7306 14.1413 58.5428 13.3892 58.7256C11.1546 59.2693 8.9152 59.794 6.68894 60.3236C6.15591 59.1481 5.23301 51.7787 5.49 50.038V50.0391Z" fill="white"/>
<path d="M50.0782 84.2556C68.8092 84.2118 84.6513 68.9569 84.2491 49.1766C84.0387 40.1369 80.2593 31.5479 73.7365 25.2856C67.2138 19.0233 58.4778 15.5967 49.4368 15.7542C31.366 15.9593 14.8499 31.0318 15.8078 51.804C16.6037 69.0972 30.8673 84.1786 50.0782 84.2556ZM48.2602 17.4953C68.0787 16.5576 82.5529 32.3789 82.5734 49.8355C82.5953 68.1054 67.9655 82.6264 49.8803 82.5513C31.8712 82.4775 17.5317 68.0014 17.4316 49.9684C17.6135 31.7219 31.8995 18.2698 48.2602 17.4956V17.4953Z" fill="white"/>
<path d="M33.3904 64.5083L29.4409 72.4304H30.1031L31.4969 69.6077H35.9343L37.3399 72.4304H37.9907C36.7477 69.9788 35.2839 66.9593 34.041 64.5083H33.3904ZM31.7992 69.0152L33.6927 65.205H33.7389L35.6434 69.0152H31.7992Z" fill="white"/>
<path d="M40.1765 67.9694C40.1765 67.2839 41.0942 66.9124 42.1048 66.9124C43.1735 66.9124 44.3353 67.3305 44.6371 68.2133L45.1951 67.9694C44.8116 66.8658 43.4292 66.3433 42.1628 66.3433C40.8387 66.3433 39.5844 66.9124 39.5844 67.9927C39.5955 70.2114 44.7067 68.9801 44.7067 70.8852C44.7067 71.7446 43.7654 72.1281 42.697 72.1281C41.4306 72.1281 40.0134 71.6051 39.8624 70.7805L39.3167 71.0244C39.6301 72.093 41.1751 72.6972 42.6039 72.6972C44.0213 72.6972 45.3105 72.1281 45.3105 70.8617C45.3103 68.3648 40.1765 69.5613 40.1765 67.9694Z" fill="white"/>
<path d="M48.3768 69.979V67.1553H49.6999V66.5642H48.3768V64.8862V59.2646H47.7733V64.6252V66.5649H46.9609V67.1559H47.7742V69.992C47.7742 71.5023 48.2711 72.4898 49.8524 72.4898C49.8978 72.4898 49.9558 72.4769 50.0041 72.4769V71.9077C48.7122 71.9095 48.3768 71.2344 48.3768 69.979Z" fill="white"/>
<path d="M54.6728 66.3901C52.7793 66.3901 51.5596 67.6098 51.5596 69.5615C51.5596 71.4316 52.8143 72.6629 54.7079 72.6629C55.9624 72.6629 57.0427 72.1404 57.5072 71.0367L57.0427 70.8044C56.613 71.6872 55.7074 72.1288 54.696 72.1288C53.2208 72.1288 52.2443 71.1643 52.1521 69.7588C52.8143 69.7588 57.333 69.7938 57.6817 69.7938L57.7863 69.213C57.6933 67.5286 56.4503 66.3901 54.6728 66.3901ZM52.1637 69.2711C52.2568 67.8307 53.2324 66.9363 54.6728 66.9363C56.1596 66.9363 57.1937 67.8887 57.1937 69.2943C56.4615 69.2943 53.1046 69.2711 52.1637 69.2711Z" fill="white"/>
<path d="M60.763 68.1664C60.763 67.6203 60.7514 67.1091 60.7398 66.5634H60.1938V72.4299H60.7976V69.0617C61.2623 67.633 62.9816 67.0404 64.0735 67.0404V66.4371C63.4223 66.4324 62.7799 66.5875 62.2027 66.8891C61.6254 67.1906 61.1311 67.6292 60.763 68.1664Z" fill="white"/>
<path d="M72.3427 64.6245L68.9624 69.3293C67.9751 67.9701 66.5577 65.9952 65.5586 64.6245H64.7925L68.6375 69.8752V72.4306H69.2888V69.8752C70.4271 68.3429 71.9594 66.1929 73.122 64.6245H72.3427Z" fill="white"/>
<path d="M41.8954 50.6316C39.2157 48.4561 36.0338 46.9863 32.6401 46.3565C32.6314 46.3544 32.6248 46.3544 32.616 46.3522L32.4409 46.3193L32.4935 46.4923C32.4978 46.5076 32.5022 46.5207 32.5066 46.536C33.183 48.7141 35.3261 53.9983 40.7987 57.0059C42.7293 58.0792 44.8592 58.746 47.0572 58.9651L47.0856 58.9672L47.1338 58.9738C47.16 58.9782 47.1863 58.9804 47.2126 58.9826L47.2629 58.9869C47.3264 58.9957 47.3987 59.0045 47.4753 59.0132C47.6986 59.0395 47.9284 59.0657 48.0313 59.0745L48.2042 59.0854L48.1386 58.9235C46.769 55.6894 44.625 52.8418 41.8954 50.6316Z" fill="white"/>
<path d="M48.4179 53.9343C48.0953 50.7546 46.9781 47.7071 45.1691 45.0723C43.3601 42.4375 40.9174 40.3001 38.0659 38.8566L38.0396 38.8435L37.8842 38.7646L37.882 38.9398V38.9748C37.8728 39.6652 37.9086 40.3554 37.9893 41.0412C38.1381 42.2933 39.1582 48.7245 44.5958 52.3494C45.7227 53.0968 46.9518 53.6771 48.245 54.0722C48.2559 54.0765 48.269 54.0787 48.28 54.0831L48.4376 54.1291L48.4201 53.9671C48.4201 53.9562 48.4179 53.9452 48.4179 53.9343Z" fill="white"/>
<path d="M47.659 45.936C47.6695 45.9447 47.6804 45.9528 47.6919 45.9601L47.8276 46.052L47.8604 45.89C47.863 45.8815 47.8644 45.8727 47.8648 45.8638C48.3389 43.4926 48.2093 41.0402 47.4878 38.7322C46.7664 36.4242 45.4764 34.3346 43.7363 32.6555C43.7295 32.6476 43.7222 32.6403 43.7144 32.6336L43.5896 32.5132L43.5349 32.6774C43.5305 32.6883 43.5283 32.6992 43.5239 32.7102C43.3656 33.2066 43.2392 33.7125 43.1452 34.225C42.9723 35.164 42.2718 40.0389 45.4065 43.8849C46.054 44.6742 46.8128 45.3651 47.659 45.936Z" fill="white"/>
<path d="M49.6432 40.9516L49.6782 41.1223L49.8183 41.015C49.8305 41.0062 49.8422 40.9967 49.8533 40.9866C50.2902 40.6488 50.7055 40.284 51.0967 39.8943C51.8169 39.1741 55.3872 35.3127 54.9626 30.0329C54.8709 28.9498 54.6247 27.8854 54.2314 26.872C54.2249 26.8567 54.2205 26.8414 54.2139 26.8261L54.1548 26.6729L54.0366 26.7867L54.0191 26.8042C52.1603 28.602 50.7848 30.8393 50.0195 33.3094C49.2543 35.7794 49.1241 38.4025 49.641 40.9362C49.641 40.9406 49.6432 40.9472 49.6432 40.9516Z" fill="white"/>
<path d="M57.2173 39.1844C57.2118 39.1869 57.2059 39.1884 57.1998 39.1888C55.0675 39.8492 53.1355 41.0351 51.5813 42.6374C50.0272 44.2397 48.9008 46.207 48.3057 48.3584C48.3035 48.365 48.3035 48.3693 48.3013 48.3759L48.2554 48.5423L48.4261 48.5116C48.4414 48.5094 48.4568 48.5051 48.4721 48.5029C48.9388 48.4141 49.3995 48.2956 49.8512 48.1483C50.6874 47.8746 54.9495 46.292 56.681 42.0629C57.0342 41.196 57.2599 40.2824 57.3508 39.3508C57.353 39.3332 57.3552 39.3179 57.3574 39.3004L57.3727 39.1362L57.2173 39.1844Z" fill="white"/>
<path d="M51.3493 49.2433C50.4857 49.7625 49.8254 50.5611 49.4776 51.5067C49.3099 51.9155 49.2416 52.3582 49.2785 52.7985C49.3154 53.2388 49.4564 53.6641 49.6898 54.0392C49.9232 54.4143 50.2425 54.7287 50.6212 54.9563C50.9999 55.1839 51.4273 55.3183 51.8681 55.3484C52.0271 55.3678 52.1872 55.3773 52.3475 55.3768C53.191 55.3674 54.0152 55.1226 54.727 54.6698C56.5723 53.5206 57.3166 51.3688 56.3841 49.8737C55.4515 48.3787 53.1946 48.0935 51.3493 49.2433Z" fill="white"/>
</svg>
