<svg width="22" height="22" viewBox="0 0 22 22" fill="none" xmlns="http://www.w3.org/2000/svg">
<g clip-path="url(#clip0_1_2198)">
<path d="M12.2185 16.5698C15.931 17.4535 17.2373 14.2782 16.5828 13.0929C16.3206 12.6199 13.9648 11.7115 13.8502 11.6675C12.8382 11.299 12.4642 11.9865 11.7629 12.8912C10.4163 12.2175 9.51343 11.6867 8.58577 10.1779C8.63802 10.1128 8.70768 10.0358 8.75993 9.97716C9.08443 9.61416 9.69218 8.93766 9.27785 8.10991C8.92952 7.416 8.75627 6.932 8.62885 6.57725C8.25943 5.54966 7.97802 5.271 6.70568 5.271C5.3811 5.271 4.35352 7.01175 4.35352 8.5105C4.35352 11.7821 8.75168 15.7421 12.2185 16.5698ZM6.70568 6.646C6.98068 6.646 7.12002 6.65516 7.18968 6.66616C7.33818 6.98058 7.48852 7.63691 8.04218 8.65808C7.95602 8.97983 6.73227 9.73425 7.29968 10.7096C8.45927 12.6786 9.61977 13.3615 11.2826 14.1883C12.3899 14.6888 12.7438 13.7822 13.4459 12.9857C13.7713 13.1177 14.8695 13.6035 15.3517 13.8473C15.3086 14.797 14.3919 15.6733 12.5375 15.2315C9.35485 14.4716 5.7276 10.8911 5.7276 8.50958C5.72852 7.60391 6.36377 6.646 6.70568 6.646Z" fill="#33CA42"/>
<path d="M0.075252 21.161C-0.0448314 21.5955 0.280585 22.031 0.738002 22.031C0.903002 22.031 0.633502 22.0731 6.09867 20.656C8.32342 21.789 10.0147 21.7532 11.0945 21.855C20.7699 21.855 25.5091 10.0547 18.8504 3.18888C9.72317 -5.63312 -4.49158 5.33021 1.45667 16.1386L0.075252 21.161ZM17.7559 4.04504C17.9145 4.33471 22.463 8.4368 19.9303 14.5665C18.371 18.3432 14.7731 20.6706 10.7416 20.4525C7.46175 20.27 6.61292 19.0985 6.00884 19.259L1.71609 20.3773L2.85734 16.2303C2.90684 16.0525 2.88209 15.8627 2.79042 15.7032C-2.694 6.23955 9.70759 -3.49087 17.7559 4.04504Z" fill="#33CA42"/>
</g>
<defs>
<clipPath id="clip0_1_2198">
<rect width="22" height="22" fill="white"/>
</clipPath>
</defs>
</svg>
