<svg width="16" height="12" viewBox="0 0 16 12" fill="none" xmlns="http://www.w3.org/2000/svg">
<path d="M0.0976548 6.23571L5.09765 11.2357C5.22787 11.3659 5.43881 11.3659 5.569 11.2357C5.69922 11.1055 5.69922 10.8946 5.569 10.7644L1.138 6.33337L15.6667 6.33337C15.8509 6.33337 16 6.18427 16 6.00002C16 5.81577 15.8509 5.66668 15.6667 5.66668L1.138 5.66668L5.569 1.23571C5.69922 1.10549 5.69922 0.894555 5.569 0.764367C5.50391 0.699274 5.41859 0.666711 5.33331 0.666711C5.24803 0.666711 5.16275 0.699274 5.09762 0.764367L0.0976234 5.76437C-0.0325642 5.89455 -0.0325639 6.10549 0.0976548 6.23571Z" fill="#454545"/>
</svg>
