<svg width="15" height="15" viewBox="0 0 15 15" fill="none" xmlns="http://www.w3.org/2000/svg">
<path d="M2.96875 15H12.0312C13.6681 15 15 13.6681 15 12.0312V2.96875C15 1.33188 13.6681 0 12.0312 0H2.96875C1.33188 0 0 1.33188 0 2.96875V12.0312C0 13.6681 1.33188 15 2.96875 15ZM0.9375 2.96875C0.9375 1.84875 1.84875 0.9375 2.96875 0.9375H12.0312C13.1512 0.9375 14.0625 1.84875 14.0625 2.96875V12.0312C14.0625 13.1512 13.1512 14.0625 12.0312 14.0625H2.96875C1.84875 14.0625 0.9375 13.1512 0.9375 12.0312V2.96875Z" fill="white"/>
<path d="M7.50044 11.3312C9.61294 11.3312 11.3317 9.61245 11.3317 7.49995C11.3317 5.38745 9.61294 3.6687 7.50044 3.6687C5.38794 3.6687 3.66919 5.38745 3.66919 7.49995C3.66919 9.61245 5.38794 11.3312 7.50044 11.3312ZM7.50044 4.6062C9.09606 4.6062 10.3942 5.90433 10.3942 7.49995C10.3942 9.09558 9.09606 10.3937 7.50044 10.3937C5.90481 10.3937 4.60669 9.09558 4.60669 7.49995C4.60669 5.90433 5.90481 4.6062 7.50044 4.6062Z" fill="white"/>
<path d="M11.4733 4.6012C12.0896 4.6012 12.5539 4.1387 12.5539 3.52558C12.5539 2.8862 12.0652 2.44995 11.4739 2.44995C10.8577 2.44995 10.3933 2.91245 10.3933 3.52558C10.3933 4.1637 10.8796 4.6012 11.4733 4.6012ZM11.5839 3.42245C11.7814 3.59683 11.3308 3.8087 11.3308 3.5262C11.3308 3.35745 11.5602 3.4012 11.5839 3.42245Z" fill="white"/>
</svg>
