<svg width="50" height="50" viewBox="0 0 50 50" fill="none" xmlns="http://www.w3.org/2000/svg">
<path d="M0.5 25C0.5 11.469 11.469 0.5 25 0.5C38.531 0.5 49.5 11.469 49.5 25C49.5 38.531 38.531 49.5 25 49.5C11.469 49.5 0.5 38.531 0.5 25Z" stroke="#E0E0E0"/>
<path fill-rule="evenodd" clip-rule="evenodd" d="M21.1382 18.2323C18.5681 19.1033 17.4217 22.0568 18.2834 24.8744C18.7206 26.2011 19.4317 27.3936 20.366 28.372C21.6477 29.6823 23.0558 30.8354 24.5694 31.8151L24.7413 31.9235C24.9059 32.0272 25.1119 32.0254 25.2748 31.9188L25.4353 31.8138C26.9468 30.8354 28.3549 29.6823 29.6322 28.3765C30.5709 27.3936 31.282 26.2011 31.7156 24.8859C32.5804 22.0585 31.4293 19.1036 28.8584 18.2324L28.6724 18.1741C27.4937 17.8328 26.2411 18.001 25.1852 18.6303L24.9975 18.7474L24.8131 18.6309C23.6994 17.9657 22.3683 17.8158 21.1382 18.2323ZM24.5628 19.7347L24.7005 19.8387C24.882 19.9756 25.127 19.9728 25.3057 19.832C26.2367 19.0983 27.4416 18.8848 28.5454 19.2576C30.5373 19.9326 31.4438 22.2597 30.745 24.5446C30.366 25.6939 29.7386 26.746 28.9147 27.6088L28.545 27.9784C27.5492 28.9525 26.4723 29.8344 25.3289 30.6115L25.0014 30.8283L25.1013 30.8946C23.6569 29.9596 22.3081 28.8551 21.0846 27.6043C20.265 26.746 19.6376 25.6939 19.255 24.5331C18.5592 22.2575 19.4617 19.9321 21.4526 19.2574C22.5038 18.9014 23.6499 19.0779 24.5628 19.7347ZM27.7081 20.9352C27.4388 20.8447 27.1507 21.001 27.0647 21.2842C26.9786 21.5675 27.1272 21.8705 27.3966 21.961C27.926 22.1389 28.3034 22.6404 28.3506 23.2321C28.3743 23.5284 28.6219 23.7484 28.9037 23.7235C29.1854 23.6986 29.3947 23.4382 29.371 23.1418C29.2891 22.1177 28.6332 21.2459 27.7081 20.9352Z" fill="#155B74"/>
</svg>
