<svg width="14" height="14" viewBox="0 0 14 14" fill="none" xmlns="http://www.w3.org/2000/svg">
<g clip-path="url(#clip0_1_383)">
<path d="M6.70825 0.291431L6.70825 13.7081C6.70825 13.8692 6.83885 13.9998 6.99993 13.9998C7.16101 13.9998 7.29161 13.8692 7.29161 13.7081L7.2916 0.291404C7.2916 0.130321 7.16101 -0.000270863 6.99993 -0.000270856C6.83885 -0.000243193 6.70825 0.130349 6.70825 0.291431Z" fill="white"/>
<path d="M13.7083 6.7085H0.291676C0.130594 6.7085 0 6.83909 0 7.00017C0 7.16126 0.130594 7.29185 0.291676 7.29185H13.7084C13.8694 7.29185 14 7.16126 14 7.00017C14 6.83909 13.8694 6.7085 13.7083 6.7085Z" fill="white"/>
</g>
<defs>
<clipPath id="clip0_1_383">
<rect width="14" height="14" fill="white"/>
</clipPath>
</defs>
</svg>
