<svg width="39" height="42" viewBox="0 0 39 42" fill="none" xmlns="http://www.w3.org/2000/svg">
<g filter="url(#filter0_d_1_2095)">
<path fill-rule="evenodd" clip-rule="evenodd" d="M15.9758 31.6556C15.1506 31.2567 13.8746 30.2327 11.9849 29.1623C10.9148 28.5575 8.53734 27.6024 7.64628 26.9569C6.86598 26.3827 6.73254 26.0156 6.501 25.3294C6.08857 24.1089 6.76376 22.6535 8.02348 22.1652C8.97436 21.7948 10.0572 22.0266 11.0459 22.263C11.642 22.4047 12.5031 22.831 13.0085 23.0619C13.473 23.2727 13.6171 23.384 14.1338 23.6502C14.8171 24.0026 15.0823 24.2142 14.6184 23.6799C14.0392 22.8445 13.0592 21.4132 12.0784 20.2054C11.3335 19.29 11.1977 19.1563 10.5845 18.4746C9.93341 17.7485 9.51986 17.2183 8.85701 16.4343C8.39093 15.8784 7.47468 14.7244 7.03592 14.0363C6.43429 13.0961 5.56308 11.5072 5.79936 10.4542C5.98469 9.62953 6.99703 8.89558 7.86127 8.90821C8.99271 8.92425 10.1836 10.0142 10.6884 10.4344C11.5958 11.19 12.4205 12.1764 13.3893 13.5292C14.622 15.2512 16.4627 17.5756 16.7565 18.1118C16.4597 17.4223 15.5858 16.0966 15.3725 15.3989C15.1791 14.7662 15.308 13.8518 15.8052 13.3699C16.2264 12.9629 16.7827 12.6103 17.3536 12.4598C17.9587 12.2988 18.7403 12.4125 19.1487 12.6858C20.3534 13.4955 21.536 15.7984 21.4998 15.6619C21.3047 14.9049 20.4955 13.3734 20.5414 12.542C20.571 11.9944 21.0004 11.2964 21.3008 11.0667C21.7662 10.7124 22.3817 10.3641 22.9761 10.1993C23.4557 10.0678 24.3157 10.3056 24.6048 10.4823C25.3011 10.9124 26.4108 12.5648 26.7884 13.1496C26.944 13.3917 26.5577 12.3742 26.6242 11.5575C26.7462 10.041 29.1407 8.54504 30.5237 11.0354C31.1677 12.1977 31.1314 12.1478 31.5353 12.9446C32.0099 13.8809 32.2745 14.4547 32.5689 15.1568C32.882 15.9086 33.5618 17.6219 33.7457 18.5257C33.8719 19.1469 33.9959 20.6251 33.8781 21.609C33.8781 21.609 33.151 24.823 33.4636 25.9461C33.7735 27.0683 33.8453 27.041 34.1714 27.7839C34.4966 28.5251 35.229 29.3466 35.229 29.3466C35.229 29.3466 33.9246 30.2445 33.1072 30.5018C32.3669 30.7337 30.8079 29.7529 30.3712 29.4325C29.7699 28.9907 29.1872 29.4295 29.1597 29.9943C29.1186 30.887 28.9044 32.5593 28.3469 32.9398C27.2581 33.683 24.7902 34.8133 22.8863 35.7533C22.8863 35.7533 22.2811 33.7587 21.2434 33.4948C20.4733 33.2956 19.075 32.8094 18.2735 32.5874L15.9758 31.6556Z" fill="white"/>
<path fill-rule="evenodd" clip-rule="evenodd" d="M15.9758 31.6556C15.1506 31.2567 13.8746 30.2327 11.9849 29.1623C10.9148 28.5575 8.53734 27.6024 7.64628 26.9569C6.86598 26.3827 6.73254 26.0156 6.501 25.3294C6.08857 24.1089 6.76376 22.6535 8.02348 22.1652C8.97436 21.7948 10.0572 22.0266 11.0459 22.263C11.642 22.4047 12.5031 22.831 13.0085 23.0619C13.473 23.2727 13.6171 23.384 14.1338 23.6502C14.8171 24.0026 15.0823 24.2142 14.6184 23.6799C14.0392 22.8445 13.0592 21.4132 12.0784 20.2054C11.3335 19.29 11.1977 19.1563 10.5845 18.4746C9.93341 17.7485 9.51986 17.2183 8.85701 16.4343C8.39093 15.8784 7.47468 14.7244 7.03592 14.0363C6.43429 13.0961 5.56308 11.5072 5.79936 10.4542C5.98469 9.62953 6.99703 8.89558 7.86127 8.90821C8.99271 8.92425 10.1836 10.0142 10.6884 10.4344C11.5958 11.19 12.4205 12.1764 13.3893 13.5292C14.622 15.2512 16.4627 17.5756 16.7565 18.1118C16.4597 17.4223 15.5858 16.0966 15.3725 15.3989C15.1791 14.7662 15.308 13.8518 15.8052 13.3699C16.2264 12.9629 16.7827 12.6103 17.3536 12.4598C17.9587 12.2988 18.7403 12.4125 19.1487 12.6858C20.3534 13.4955 21.536 15.7984 21.4998 15.6619C21.3047 14.9049 20.4955 13.3734 20.5414 12.542C20.571 11.9944 21.0004 11.2964 21.3008 11.0667C21.7662 10.7124 22.3817 10.3641 22.9761 10.1993C23.4557 10.0678 24.3157 10.3056 24.6048 10.4823C25.3011 10.9124 26.4108 12.5648 26.7884 13.1496C26.944 13.3917 26.5577 12.3742 26.6242 11.5575C26.7462 10.041 29.1407 8.54504 30.5237 11.0354C31.1677 12.1977 31.1314 12.1478 31.5353 12.9446C32.0099 13.8809 32.2745 14.4547 32.5689 15.1568C32.882 15.9086 33.5618 17.6219 33.7457 18.5257C33.8719 19.1469 33.9959 20.6251 33.8781 21.609C33.8781 21.609 33.151 24.823 33.4636 25.9461C33.7735 27.0683 33.8453 27.041 34.1714 27.7839C34.4966 28.5251 35.229 29.3466 35.229 29.3466C35.229 29.3466 33.9246 30.2445 33.1072 30.5018C32.3669 30.7337 30.8079 29.7529 30.3712 29.4325C29.7699 28.9907 29.1872 29.4295 29.1597 29.9943C29.1186 30.887 28.9044 32.5593 28.3469 32.9398C27.2581 33.683 24.7902 34.8133 22.8863 35.7533C22.8863 35.7533 22.2811 33.7587 21.2434 33.4948C20.4733 33.2956 19.075 32.8094 18.2735 32.5874L15.9758 31.6556V31.6556Z" stroke="#737373" stroke-width="0.75" stroke-linecap="round" stroke-linejoin="round"/>
<path d="M30.6751 25.0116L27.4998 18.7473" stroke="#737373" stroke-width="0.75" stroke-linecap="round"/>
<path d="M27.1675 26.8161L23.9514 20.5406" stroke="#737373" stroke-width="0.75" stroke-linecap="round"/>
<path d="M20.5244 22.3499L23.7061 28.5357" stroke="#737373" stroke-width="0.75" stroke-linecap="round"/>
</g>
<defs>
<filter id="filter0_d_1_2095" x="-3" y="-0.999878" width="44.9907" height="46.3101" filterUnits="userSpaceOnUse" color-interpolation-filters="sRGB">
<feFlood flood-opacity="0" result="BackgroundImageFix"/>
<feColorMatrix in="SourceAlpha" type="matrix" values="0 0 0 0 0 0 0 0 0 0 0 0 0 0 0 0 0 0 127 0" result="hardAlpha"/>
<feOffset dy="2"/>
<feGaussianBlur stdDeviation="1.5"/>
<feColorMatrix type="matrix" values="0 0 0 0 0 0 0 0 0 0 0 0 0 0 0 0 0 0 0.15 0"/>
<feBlend mode="normal" in2="BackgroundImageFix" result="effect1_dropShadow_1_2095"/>
<feBlend mode="normal" in="SourceGraphic" in2="effect1_dropShadow_1_2095" result="shape"/>
</filter>
</defs>
</svg>
