<svg width="22" height="22" viewBox="0 0 22 22" fill="none" xmlns="http://www.w3.org/2000/svg">
<path d="M11 22C17.0656 22 22 17.0656 22 11C22 4.93442 17.0656 0 11 0C4.93442 0 0 4.93442 0 11C0 17.0656 4.93442 22 11 22ZM11 1.375C16.3075 1.375 20.625 5.6925 20.625 11C20.625 16.3075 16.3075 20.625 11 20.625C5.6925 20.625 1.375 16.3075 1.375 11C1.375 5.6925 5.6925 1.375 11 1.375Z" fill="#278EED"/>
<path d="M7.2387 12.9753L8.67603 12.3511L8.2727 12.7553C8.14345 12.8846 8.07103 13.0597 8.07103 13.2412V15.9316C8.07103 16.5476 8.81537 16.8464 9.24437 16.4174L10.6872 14.9746L13.8314 16.5467C14.2384 16.7502 14.7306 16.5091 14.815 16.0544L16.6089 6.19017C16.7033 5.65942 16.1808 5.23042 15.6812 5.42659L4.02487 9.98884C3.50237 10.1923 3.4327 10.9073 3.9057 11.2089L6.5952 12.9249C6.7877 13.0478 7.03062 13.067 7.2387 12.9753ZM15.0359 7.15726L13.627 14.9077L10.8586 13.5244C10.591 13.3906 10.272 13.4465 10.0657 13.6537L9.44603 14.2733V13.5281L12.2025 10.7717C12.7369 10.2373 12.1355 9.35542 11.4425 9.65517L7.02695 11.571L5.78578 10.779L15.0359 7.15726Z" fill="#278EED"/>
</svg>
