<svg width="50" height="60" viewBox="0 0 50 60" fill="none" xmlns="http://www.w3.org/2000/svg">
<path d="M46.3489 42.4218C46.4039 41.7989 46.4326 41.1728 46.4326 40.5468C46.4326 36.1846 45.108 31.9941 42.6021 28.4281C40.39 25.2801 37.4042 22.8128 33.9155 21.2379V10.5469H37.4581V7.03124H30.3729V0H19.7451V7.03124H16.2025V10.5469H10.7706C4.91043 10.5469 0.142822 15.2782 0.142822 21.0937C0.142822 23.5003 0.981352 25.8543 2.50372 27.7223C3.50001 28.9448 4.76271 29.9267 6.17608 30.6017C4.54082 33.6496 3.68541 37.0427 3.68541 40.5468C3.68541 44.6884 4.88906 48.7015 7.16647 52.1524C9.38425 55.5131 12.4976 58.1715 16.1695 59.8404L16.5207 60H38.6389C44.8246 60 49.8571 55.0058 49.8571 48.8672V42.4219H46.3489V42.4218ZM23.2877 3.51562H26.8303V7.03124H23.2877V3.51562ZM19.7451 23.608V10.5469H30.3729V23.6081L31.5037 24.0433C34.4183 25.1651 36.9591 27.0099 38.9194 29.4144C31.9771 29.6708 27.7725 30.7269 23.6903 31.7529C19.4734 32.8129 15.4655 33.8194 8.48313 34.0102C8.98476 32.7591 9.6327 31.5618 10.4216 30.4393C12.4651 27.5314 15.2981 25.3197 18.6143 24.0433L19.7451 23.608ZM5.25808 25.5114C4.2292 24.2491 3.68541 22.7214 3.68541 21.0937C3.68541 17.2167 6.86382 14.0625 10.7706 14.0625H16.2025V21.2379C13.0208 22.6743 10.2596 24.8547 8.1199 27.6149C7.01107 27.1692 6.01903 26.4451 5.25808 25.5114ZM7.22799 40.5468C7.22799 39.5327 7.31679 38.5306 7.48578 37.547C15.5521 37.424 20.1284 36.2749 24.5601 35.161C29.0441 34.0339 33.2927 32.9674 41.132 32.8778C42.2867 35.2546 42.89 37.8611 42.89 40.5468C42.89 41.1784 42.8552 41.81 42.7882 42.4362C39.0651 42.6234 35.8149 44.6203 33.9155 47.5562C31.919 44.4703 28.4304 42.4218 24.4686 42.4218H17.9738V48.8671C17.9738 51.8111 19.1318 54.4914 21.0188 56.4843H17.3028C11.1701 53.5391 7.22799 47.3247 7.22799 40.5468ZM32.1442 56.4843H29.192C24.9597 56.4843 21.5164 53.0672 21.5164 48.8671V45.9374H24.4686C28.7009 45.9374 32.1442 49.3545 32.1442 53.5546V56.4843ZM46.3145 48.8671C46.3145 53.0672 42.8712 56.4843 38.6389 56.4843H35.6868V53.5546C35.6868 49.3545 39.13 45.9374 43.3624 45.9374H46.3145V48.8671Z" fill="#155B74"/>
</svg>
