<svg width="50" height="50" viewBox="0 0 50 50" fill="none" xmlns="http://www.w3.org/2000/svg">
<path d="M0.5 25C0.5 11.469 11.469 0.5 25 0.5C38.531 0.5 49.5 11.469 49.5 25C49.5 38.531 38.531 49.5 25 49.5C11.469 49.5 0.5 38.531 0.5 25Z" stroke="#E0E0E0"/>
<path fill-rule="evenodd" clip-rule="evenodd" d="M24.5986 18C22.5017 18 20.8178 19.6748 20.8178 21.7611C20.8178 23.8469 22.5019 25.5221 24.5986 25.5221C26.6958 25.5221 28.3794 23.8471 28.3794 21.7611C28.3794 19.6746 26.6961 18 24.5986 18ZM24.5992 19.061C26.1077 19.061 27.3136 20.2606 27.3136 21.7612C27.3136 23.2613 26.1074 24.4614 24.5992 24.4614C23.0915 24.4614 21.8848 23.2611 21.8848 21.7612C21.8848 20.2608 23.0912 19.061 24.5992 19.061ZM24.6001 26.8097C21.024 26.8097 19 27.4848 19 29.3975C19 31.3124 21.033 32.0001 24.6001 32.0001L25.0576 31.9963C28.3475 31.9391 30.2002 31.2415 30.2002 29.4124C30.2002 27.5391 28.2546 26.8402 24.8305 26.8107L24.6001 26.8097ZM24.5968 27.8709C27.5838 27.8709 29.1305 28.3941 29.1305 29.4126C29.1305 30.4249 27.5876 30.9396 24.5968 30.9396C21.6098 30.9396 20.0631 30.4163 20.0631 29.3978C20.0631 28.4125 21.523 27.899 24.3574 27.872L24.5968 27.8709Z" fill="#155B74"/>
</svg>
