<svg width="15" height="15" viewBox="0 0 15 15" fill="none" xmlns="http://www.w3.org/2000/svg">
<g clip-path="url(#clip0_1_1508)">
<path d="M6.21217 4.91009C5.90154 4.72447 5.50342 4.94884 5.50342 5.31259V9.68759C5.50342 10.0532 5.90217 10.2745 6.21217 10.0907L9.88029 7.90634C10.1853 7.72447 10.1847 7.28322 9.88091 7.10072L6.21217 4.91009ZM6.44092 8.86321V6.13822L8.72529 7.50259L6.44092 8.86321Z" fill="white"/>
<path d="M12.44 2.04437C9.53187 1.61249 5.46938 1.61249 2.56 2.04437C1.39625 2.21687 0.479375 3.13062 0.279375 4.31687C-0.093125 6.51874 -0.093125 8.48187 0.279375 10.6831C0.479375 11.87 1.39625 12.7831 2.56 12.9556C4.0175 13.1719 5.7625 13.28 7.50688 13.28C9.24813 13.28 10.9888 13.1725 12.4406 12.9562C13.6031 12.7837 14.5194 11.8706 14.7206 10.6837C15.0931 8.48187 15.0931 6.51812 14.7206 4.31624C14.5206 3.13062 13.6037 2.21687 12.44 2.04437ZM13.7962 10.5275C13.6631 11.3125 13.0631 11.9162 12.3025 12.0287C9.47875 12.4481 5.52875 12.4481 2.6975 12.0281C1.93625 11.915 1.33562 11.3119 1.20312 10.5269C0.844375 8.40562 0.844375 6.59499 1.20312 4.47249C1.33625 3.68749 1.93625 3.08499 2.69812 2.97124C4.11188 2.76187 5.80625 2.65687 7.49937 2.65687C9.19375 2.65687 10.8881 2.76187 12.3019 2.97124C13.0631 3.08437 13.6637 3.68749 13.7962 4.47249C14.155 6.59499 14.155 8.40562 13.7962 10.5275Z" fill="white"/>
</g>
<defs>
<clipPath id="clip0_1_1508">
<rect width="15" height="15" fill="white"/>
</clipPath>
</defs>
</svg>
